<?xml version="1.0" encoding="UTF-8" standalone="no"?>
<!-- Created with Inkscape (http://www.inkscape.org/) -->

<svg
   version="1.1"
   id="svg1"
   width="1920"
   height="1080"
   viewBox="0 0 1920 1080"
   sodipodi:docname="land.svg"
   inkscape:version="1.4.3 (0d15f75042, 2025-12-25)"
   xmlns:inkscape="http://www.inkscape.org/namespaces/inkscape"
   xmlns:sodipodi="http://sodipodi.sourceforge.net/DTD/sodipodi-0.dtd"
   xmlns:xlink="http://www.w3.org/1999/xlink"
   xmlns="http://www.w3.org/2000/svg"
   xmlns:svg="http://www.w3.org/2000/svg">
  <sodipodi:namedview
     id="namedview1"
     pagecolor="#ffffff"
     bordercolor="#000000"
     borderopacity="0.25"
     inkscape:showpageshadow="2"
     inkscape:pageopacity="0.0"
     inkscape:pagecheckerboard="0"
     inkscape:deskcolor="#d1d1d1"
     inkscape:zoom="1.1009259"
     inkscape:cx="742.55679"
     inkscape:cy="746.19009"
     inkscape:window-width="2560"
     inkscape:window-height="1376"
     inkscape:window-x="0"
     inkscape:window-y="0"
     inkscape:window-maximized="1"
     inkscape:current-layer="svg1" />
  <defs
     id="defs1">
    <linearGradient
       id="linearGradient28"
       inkscape:collect="always"
       inkscape:label="6666">
      <stop
         style="stop-color:#0c1018;stop-opacity:1;"
         offset="0"
         id="stop25" />
      <stop
         style="stop-color:#60a5fa;stop-opacity:1;"
         offset="1"
         id="stop26" />
    </linearGradient>
    <linearGradient
       id="linearGradient22"
       inkscape:collect="always">
      <stop
         style="stop-color:#0c1018;stop-opacity:1;"
         offset="0"
         id="stop22" />
      <stop
         style="stop-color:#0ddad6;stop-opacity:1;"
         offset="0.47521162"
         id="stop23" />
    </linearGradient>
    <linearGradient
       id="linearGradient6"
       inkscape:collect="always"
       inkscape:label="6666">
      <stop
         style="stop-color:#0c1018;stop-opacity:1;"
         offset="0.41821069"
         id="stop5" />
      <stop
         style="stop-color:#60a5fa;stop-opacity:1;"
         offset="0.5359199"
         id="stop17" />
    </linearGradient>
    <linearGradient
       id="linearGradient117"
       inkscape:collect="always">
      <stop
         style="stop-color:#0c1018;stop-opacity:1;"
         offset="0.42546582"
         id="stop117" />
      <stop
         style="stop-color:#0ddad6;stop-opacity:1;"
         offset="0.69565219"
         id="stop118" />
    </linearGradient>
    <linearGradient
       id="swatch1">
      <stop
         style="stop-color:#07828b;stop-opacity:1;"
         offset="0"
         id="stop1" />
    </linearGradient>
    <linearGradient
       id="swatch36">
      <stop
         style="stop-color:#62d799;stop-opacity:0.40400002;"
         offset="0"
         id="stop37" />
    </linearGradient>
    <clipPath
       clipPathUnits="userSpaceOnUse"
       id="clipPath21">
      <path
         d="M 87,84.33 H 663 V 444.331 H 87 Z"
         transform="matrix(1.3333333,0,0,-1.3333333,0,666.66667)"
         id="path21" />
    </clipPath>
    <clipPath
       clipPathUnits="userSpaceOnUse"
       id="clipPath19">
      <path
         d="M 87,264.188 H 424.497 V 206.757 H 87 Z"
         id="path19" />
    </clipPath>
    <clipPath
       id="Clip1277">
      <path
         d="M 0,0 H 1000 V 75.1157 H 0 Z"
         id="path1278" />
    </clipPath>
    <radialGradient
       fx="0"
       fy="0"
       cx="0"
       cy="0"
       r="1"
       gradientUnits="userSpaceOnUse"
       gradientTransform="matrix(1579.7066,0,0,-6036.686,1027.7998,-566.41264)"
       spreadMethod="pad"
       id="radialGradient965">
      <stop
         style="stop-opacity:1;stop-color:#65beeb"
         offset="0"
         id="stop963" />
      <stop
         style="stop-opacity:1;stop-color:#65beeb"
         offset="0.06141182"
         id="stop964" />
      <stop
         style="stop-opacity:1;stop-color:#4566b3"
         offset="1"
         id="stop965" />
    </radialGradient>
    <clipPath
       clipPathUnits="userSpaceOnUse"
       id="clipPath981">
      <path
         d="M 0,35.806 H 1920 V 1080 H 0 Z"
         transform="matrix(1.3333333,0,0,-1.3333333,0,1440)"
         id="path981" />
    </clipPath>
    <clipPath
       clipPathUnits="userSpaceOnUse"
       id="clipPath979">
      <path
         d="M -0.637741,256.651 H 2141.94 V 50.9409 H -0.637741 Z"
         id="path979" />
    </clipPath>
    <linearGradient
       xlink:href="#linearGradient81"
       id="linearGradient32"
       x1="1232.8743"
       y1="-144.83881"
       x2="1232.8743"
       y2="2621.0576"
       gradientUnits="userSpaceOnUse"
       gradientTransform="matrix(1.0158552,0,0,0.95218529,-386.8451,-226.71049)" />
    <linearGradient
       id="linearGradient81">
      <stop
         style="stop-color:#060e26;stop-opacity:1;"
         offset="0.43772894"
         id="stop78" />
      <stop
         style="stop-color:#093c52;stop-opacity:1;"
         offset="0.52022612"
         id="stop79" />
      <stop
         style="stop-color:#002049;stop-opacity:1;"
         offset="0.77476507"
         id="stop80" />
      <stop
         style="stop-color:#181c33;stop-opacity:1;"
         offset="1"
         id="stop81" />
    </linearGradient>
    <linearGradient
       inkscape:collect="always"
       xlink:href="#linearGradient117"
       id="linearGradient118"
       x1="328.92978"
       y1="28.768349"
       x2="352.22916"
       y2="473.34726"
       gradientUnits="userSpaceOnUse" />
    <linearGradient
       inkscape:collect="always"
       xlink:href="#linearGradient6"
       id="linearGradient123"
       gradientUnits="userSpaceOnUse"
       x1="318.00876"
       y1="42.615089"
       x2="411.396"
       y2="429.20248" />
    <linearGradient
       inkscape:collect="always"
       xlink:href="#linearGradient22"
       id="linearGradient23"
       x1="700.09991"
       y1="519.32349"
       x2="517.65051"
       y2="582.146"
       gradientUnits="userSpaceOnUse" />
    <linearGradient
       inkscape:collect="always"
       xlink:href="#linearGradient28"
       id="linearGradient24"
       gradientUnits="userSpaceOnUse"
       x1="1258.6927"
       y1="779.68219"
       x2="1171.6898"
       y2="554.44287"
       gradientTransform="matrix(1,0,0,0.77298644,1.2993093,424.28023)" />
  </defs>
  <g
     id="layer1"
     transform="matrix(1,0,0,0.82742392,0,186.99957)"
     style="display:none;fill:#0c1018;fill-opacity:1">
    <path
       style="fill:#0c1018;fill-opacity:1;stroke-width:0.723935"
       d="m 1.5028815,841.46403 c 0,0 611.6727885,45.26471 626.7015985,41.05404 15.02882,-4.21067 431.32702,29.4747 431.32702,29.4747 l 861.1511,-5.26334 v 176.84817 l -1938.717178,-1.0527 z"
       id="path1" />
  </g>
  <path
     style="display:none;mix-blend-mode:normal;fill:url(#linearGradient32);stroke:none;stroke-width:4.22908;stroke-dasharray:none;stroke-opacity:1;paint-order:normal"
     d="m -0.19002695,874.89564 c 0,0 100.84100695,64.84132 593.65520695,58.19494 0,0 37.22696,18.27769 193.22569,-4.98485 0,0 62.045,21.60101 129.4081,19.93931 0,0 802.42623,37.90424 899.92553,64.48996 l 100.6307,19.4142 6.2264,75.9536 L 0.07694305,1218.5691 Z"
     id="path63" />
  <path
     style="display:none;fill:#002d43;fill-opacity:1;stroke-width:0.817944"
     d="m 3.6770368,1078.222 c 0,0 502.2108132,19.86 724.3187832,-38.6167 0,0 454.08748,-77.23342 736.65808,-87.16343 0,0 449.1517,-34.20336 457.7893,-78.33674 v 0 l 2.4679,302.31367 -1921.2340632,-1.1033 z"
     id="path31" />
  <g
     id="g63"
     transform="matrix(1,0,0,0.77298644,1.7211961,332.91551)"
     style="display:none;fill:url(#linearGradient23)" />
  <g
     opacity="0.800003"
     id="g20"
     clip-path="url(#clipPath21)"
     style="display:none;opacity:1;fill:url(#linearGradient118);fill-opacity:1;fill-rule:nonzero"
     transform="matrix(3.2437215,0,0,2.3123494,-856.68927,297.67944)" />
  <g
     inkscape:groupmode="layer"
     id="layer2"
     inkscape:label="Layer 1"
     style="display:none">
    <path
       style="display:inline;fill:#0c1018;fill-opacity:1;stroke-width:0.865"
       d="m -1.8945748,945.81486 c 0,0 122.6240548,40.87468 164.4070648,39.05803 0,0 355.60977,29.97481 429.1842,18.16651 73.57443,-11.80822 -1.36249,0.4542 -1.36249,0.4542 0,0 84.47435,16.3499 191.2027,-5.90414 0,0 87.65349,27.70394 126.25736,21.79984 0,0 343.34744,21.7998 361.51394,17.7124 0,0 217.9983,-21.7999 272.4979,-20.4374 0,0 383.7679,-39.51218 378.3179,-68.57863 l 0.4542,305.65183 -1927.4685697,-9.9916 z"
       id="path3" />
  </g>
  <path
     id="path118"
     d="m 1917.7427,800.8375 c -3.9889,2.33486 -6.5552,6.40212 -10.2959,6.97897 v 0 c -0.7611,1.51628 -1.5924,3.17726 -2.5988,5.16782 v 0 c -0.8627,-0.16113 -1.7175,1.9906 -2.5857,4.14236 v 0 c -0.8655,2.15723 -1.7468,4.31261 -2.6622,4.13864 v 0 c -2.5605,2.47588 -7.0453,3.95738 -7.5754,8.17479 v 0 c -0.3459,2.7817 -4.8705,5.29238 -7.3145,8.01179 v 0 c -1.1232,1.25258 -1.279,3.03075 -2.6795,4.02513 v 0 c -3.4031,2.41728 -3.5934,4.71369 -1.1373,7.46426 v 0 c 0.2953,0.33145 -1.1512,1.41373 -1.7958,2.1554 v 0 c -2.9832,-1.36062 -4.6403,-0.61165 -5.7926,0.13914 v 0 c -1.413,0.91562 -2.07,1.83309 -3.4852,-1.11342 v 0 c -2.8204,2.56194 -5.2912,4.81257 -7.6367,6.94049 v 0 c -1.1794,-0.9486 -2.3036,-0.10059 -3.4965,0.74535 v 0 c -1.2648,0.90099 -2.6062,1.8001 -4.1606,0.54573 v 0 c -1.6439,2.79819 -2.6906,4.57447 -3.7937,6.4497 v 0 c -6.1827,-3.26882 -6.1827,-3.26882 -12.6566,-3.42993 v 0 c -5.671,5.24654 -7.5584,11.38499 -7.744,18.84187 v 0 c -2.5444,-0.857 -4.7791,0.79297 -6.8895,2.4411 v 0 c -2.0411,1.59315 -3.9687,3.18641 -5.952,2.51799 v 0 c 0.8159,-2.46854 2.1767,-4.46642 1.8787,-6.33069 v 0 c -0.2555,-1.60421 -2.3999,-3.05639 -3.7423,-4.61293 v 0 c -6.0539,0.8808 -8.1534,11.92153 -12.0927,16.10413 v 0 c -1.4869,-2.91352 -2.2563,-4.42437 -2.9582,-5.7959 v 0 c -0.9804,-0.0279 -2.1808,0.0109 -3.3813,0.0496 v 0 c -2.6121,0.0861 -5.2351,0.17207 -5.6436,-0.45235 v 0 c -2.8807,-4.35658 -7.0831,1.75069 -10.8775,2.15178 v 0 c -0.6083,-1.49069 -1.1858,-2.89893 -2.2401,-5.47551 v 0 c -2.1089,3.02891 -3.5631,5.10923 -5.0066,7.18585 v 0 c -1.6687,-0.15928 -3.455,3.36592 -5.2888,6.88927 v 0 c -1.8419,3.53432 -3.7288,7.06866 -5.585,6.88922 v 0 c -2.1197,4.07453 -3.9671,7.63088 -6.4806,12.46358 v 0 c -2.221,-2.21217 -3.3461,-3.3292 -4.4708,-4.45178 v 0 c -1.0435,1.47598 -2.0896,2.95012 -3.1331,4.42616 v 0 c -2.4627,-1.34231 -4.1751,-0.35895 -5.2261,1.09324 v 0 c -1.1156,1.54194 -1.7071,3.26339 -3.0404,5.93154 v 0 c -1.0137,-0.88817 -1.8457,0.33149 -2.6301,1.55112 v 0 c -0.7521,1.17014 -1.4622,2.34217 -2.2558,1.64806 v 0 c -0.9036,1.74527 -1.6937,3.26155 -2.6836,5.17332 v 0 c -2.5157,-0.55479 -4.8759,-1.07486 -7.3389,-1.61878 v 0 c -1.3173,1.1152 -2.6185,2.21948 -5.5651,4.71734 v 0 c -1.4405,-1.77449 -2.6411,-3.2523 -4.1651,-5.1294 v 0 c -4.7037,3.19558 -9.1409,6.20979 -14.1399,9.6032 v 0 c -1.0213,-0.91379 -1.9798,-1.77634 -3.2,-2.87331 v 0 c -0.2142,0 -1.0871,-0.18858 -1.6048,0.0298 v 0 c -4.3775,1.83863 -9.7016,3.19011 -12.718,5.80512 v 0 c -2.7871,2.41368 -2.9905,6.22633 -4.5322,9.37613 v 0 c -0.4104,0.82228 -1.5774,1.46866 -2.183,2.00886 v 0 c -6.3488,-1.52176 -3.9517,-5.32709 -5.7084,-8.48787 v 0 c -4.089,3.83651 -2.9497,9.1838 -9.9542,13.28763 v 0 c 0.5284,-4.06357 0.8673,-6.66762 1.2492,-9.59216 v 0 c -1.027,-0.36442 -2.9758,-1.04933 -5.1828,-1.82761 v 0 c -1.6443,2.07117 -3.2913,4.14784 -5.1284,6.46069 v 0 c -0.9439,-0.9907 -1.7857,-1.88072 -2.9965,-3.15156 v 0 c -2.9259,2.81283 -5.7184,5.49932 -8.5884,8.25531 v 0 c 1.2726,1.15559 2.5923,2.3495 3.823,3.47023 v 0 c -0.047,2.51805 -8.6842,-0.86613 -5.2841,3.87505 v 0 c -3.8883,2.07479 -6.3235,1.13721 -7.9713,-2.07302 v 0 c -6.0953,1.04201 -12.246,2.09313 -18.7729,3.21023 v 0 c -1.5551,-1.95216 -2.9849,-3.74495 -4.6026,-5.77219 v 0 c 1.831,-1.7214 3.6113,-3.39884 5.5277,-5.2008 v 0 c -0.644,-0.85151 -1.007,-1.77995 -1.8571,-2.37885 v 0 c -2.6215,-1.83672 -4.0126,-3.55629 -2.9565,-6.4973 v 0 c 1.3991,-3.91155 -0.5057,-6.29041 -5.5657,-9.7588 v 0 c -4.0826,0.66657 -5.1814,2.63702 -5.659,5.37292 v 0 c -0.4076,2.34399 -2.0009,4.59646 -3.0606,6.8709 v 0 c -3.3103,-0.65746 -6.1432,-1.21962 -9.5009,-1.88435 v 0 c 2.4635,-1.29291 4.6187,-2.41911 7.1807,-3.76141 v 0 c -1.8754,-0.8955 -3.1825,-1.52001 -4.4923,-2.14631 v 0 c 1.4288,-0.65375 2.8682,-1.30748 5.1944,-2.36777 v 0 c -1.9396,-1.30569 -3.6169,-2.43196 -5.5225,-3.71565 v 0 c 0.7183,-1.46683 1.5257,-3.11684 2.7353,-5.58535 v 0 c -3.9113,0.72338 -6.8323,1.2654 -10.5981,1.96125 v 0 c -3.0984,-3.245 3.2048,-9.05009 -4.3279,-13.13755 v 0 c -2.5135,2.28181 -4.9976,4.53428 -7.9913,7.25186 v 0 c -3.4967,-1.03833 -6.967,-2.06927 -10.8167,-3.21388 v 0 c -6.851,5.61469 -2.3105,12.78589 -4.8306,19.53964 v 0 c -3.9638,0.16482 -7.782,0.32229 -11.2117,0.46696 v 0 c -3.3092,4.34373 -0.3184,7.27562 3.1238,9.73504 v 0 c -3.3466,1.30934 -6.1545,2.4118 -10.0584,3.93903 v 0 c -3.0934,-0.92663 -7.7493,-2.31656 -12.4079,-3.70648 v 0 c -1.8429,3.12601 -5.0846,2.99048 -9.41,2.85678 v 0 c -1.9976,-0.0622 -4.2277,-0.12459 -6.6594,0.13364 v 0 c 4.5597,-2.58027 6.7531,-3.82734 9.1673,-5.19348 v 0 c 0.588,-4.72285 -3.0806,-8.02829 -9.189,-10.81915 v 0 c 1.1556,-1.06945 2.3991,-2.21765 4.238,-3.92255 v 0 c -2.1847,-0.37542 -4.0104,-0.69223 -5.7148,-0.98521 v 0 c -2.6849,-6.17136 0.3112,-13.72353 -9.2719,-18.37683 v 0 c -5.5226,7.51012 -7.349,11.8337 -7.3649,16.68473 v 0 c 0,0.66289 -0.3637,1.43572 -0.9296,1.97412 v 0 c -2.2556,2.1334 -4.6558,4.19538 -6.9581,6.24825 v 0 h -15.1873 c 1.735,-1.37893 3.1928,-2.53812 4.7331,-3.75958 v 0 c -1.8673,-0.38271 -3.8928,-0.79846 -6.0741,-1.24528 v 0 c 5.6892,-2.41358 4.8029,-5.90582 3.7269,-10.22395 v 0 c -3.94,0.17396 -7.9671,0.3461 -12.5577,0.54395 v 0 c 1.4179,-1.65181 2.9288,-3.07659 3.8914,-4.66064 v 0 c 0.5512,-0.91014 0.5037,-2.95381 0.232,-2.99596 v 0 c -6.3335,-0.96872 1.8608,-6.88922 -5.4036,-7.29575 v 0 c -2.6708,2.66996 -4.8599,5.5249 -1.2093,8.80473 v 0 c -2.6203,0.61346 -4.8912,1.14642 -7.7552,1.81843 v 0 c 1.6134,2.43746 2.8703,4.34014 4.705,7.11265 v 0 c -3.3927,-0.60792 -5.965,-1.06941 -8.5584,-1.53644 v 0 c -0.017,1.58777 0.463,3.2707 -0.1939,4.70452 v 0 c -0.6082,1.30934 -2.4481,2.34771 -3.7686,3.52515 v 0 c 1.3949,0.57142 2.5135,1.02737 3.7005,1.5127 v 0 c -0.4557,0.37175 -0.8297,0.9907 -1.359,1.06579 v 0 c -5.5506,0.78194 -7.6282,-2.2781 -10.4858,-4.53977 v 0 c 3.0535,-1.33678 6.4354,-2.49044 4.0237,-5.69149 v 0 c -1.8745,0.30763 -3.7967,0.62078 -5.7638,0.94311 v 0 c -0.068,-4.1973 5.081,-8.76442 -3.0048,-12.03148 v 0 c -1.3398,-0.54208 -0.3575,-3.4959 -1.0455,-5.21914 v 0 c -0.6441,-1.6097 -2.0774,-3.06922 -3.3226,-4.81623 v 0 c -4.0003,3.18091 1.2649,8.26081 -6.0941,9.85034 v 0 c -1.3681,3.48133 -2.8235,6.94794 -4.0703,10.45114 v 0 c -0.844,2.37152 -1.3844,4.7924 -2.1253,7.42206 v 0 c -1.2416,-0.32045 -2.8416,-0.73791 -6.1394,-1.59501 v 0 c 1.8815,2.58944 3.2393,4.46099 4.0393,5.56524 v 0 c -1.8402,5.40959 -3.5197,10.35402 -5.199,15.30026 v 0 c 0.3793,2.42639 -8.2583,-0.91199 -4.7932,3.94457 v 0 c -3.1024,0.95955 -4.021,2.11327 -2.3866,4.5708 v 0 c 1.5042,2.2671 -0.8393,4.21922 -3.9047,5.18618 v 0 c -2.3388,0.73435 -5.003,0.96691 -8.178,1.5456 v 0 c -1.415,-0.68131 -3.4031,-1.64083 -5.3967,-2.60408 v 0 c -3.4271,4.23935 -4.8058,7.97519 -5.304,14.21616 v 0 c -3.4418,-1.48705 -6.8414,-2.95756 -10.6937,-4.62401 v 0 c 1.1026,-1.06213 2.5336,-2.44472 4.2289,-4.08187 v 0 c -2.6232,-4.20278 -5.3272,-8.53555 -8.7747,-14.05131 v 0 c -2.313,3.84933 -3.9,6.49731 -5.6696,9.44569 v 0 c -1.6211,-2.72859 -3.1563,-5.32171 -4.9876,-8.4129 v 0 c -2.1949,2.39716 -4.0635,4.4335 -6.4508,7.03759 v 0 c -0.4848,-2.69745 -0.8546,-4.75397 -1.522,-8.46041 v 0 c -1.8232,2.75784 -2.6852,4.05801 -4.2212,6.38375 v 0 c -1.1245,0.12267 -3.9798,0.43582 -7.4672,0.81859 v 0 c -0.5139,1.88436 -0.1828,5.14218 -1.7929,5.7026 v 0 c -4.6371,1.61332 -1.921,3.76327 -2.3855,5.73366 v 0 c -0.4809,2.02175 -2.1155,3.92075 -3.238,5.87476 v 0 c -6.596,-1.13722 -6.498,-1.15377 -7.4892,-3.95378 v 0 c -0.9167,-2.58942 -2.0771,-5.13302 -3.3093,-8.13814 v 0 c -1.3466,3.42998 -4.8907,7.48624 -3.2581,9.34679 v 0 c 3.3462,3.81638 -8.2166,3.74494 -3.6645,7.50821 v 0 c -2.9304,-2.38982 -5.8632,-4.78146 -9.0294,-7.35805 v 0 c -0.9905,0.97241 -1.9038,1.86421 -3.0359,2.96852 v 0 c -6.0866,-3.61494 2.6333,-8.74431 -2.7707,-12.43064 v 0 c -6.9355,0.25815 -1.0001,5.71174 -6.7017,7.02471 v 0 c -1.6256,-4.58733 -3.3025,-9.31019 -5.796,-16.3514 v 0 c -2.4635,7.14744 -4.7334,11.94167 -14.1598,12.55515 v 0 c -2.2851,-3.4281 5.7722,-7.35618 -1.2202,-11.04987 v 0 c -2.6441,2.63709 -4.5544,5.12943 -3.0034,8.48982 v 0 c 1.4813,3.21019 -0.4037,5.28321 -5.0729,6.44786 v 0 c -0.9982,-1.62066 -1.3586,-3.81085 -3.0504,-4.55797 v 0 c -2.3864,-1.04934 -5.7594,-1.02737 -9.7127,-1.61161 v 0 c 0.2859,-2.07293 0.5804,-4.22838 0.8776,-6.38556 v 0 c -0.2643,0.0109 -0.5735,0 -0.8852,-0.008 v 0 c -0.6738,-0.0238 -1.3503,-0.0455 -1.532,0.15013 v 0 c -2.0768,2.22501 -3.9509,4.54336 -6.0381,7.00645 v 0 c -8.9636,-3.48673 -2.5272,-10.17454 -7.2967,-14.37183 v 0 c -1.649,2.77258 -2.7811,5.66964 -4.9844,8.1089 v 0 c -2.1578,2.39166 3.9577,6.2794 -3.2904,7.3745 v 0 c -1.2053,-2.05285 -2.0021,-4.47373 -3.9203,-6.33434 v 0 c -1.4993,-1.4559 -4.3936,-2.22127 -6.6372,-3.278 v 0 c -1.3575,3.71933 -2.81,7.69317 -3.9934,10.93086 v 0 c -3.5141,0.13363 -5.8782,0.24726 -8.2417,0.30588 v 0 c -1.5412,0.0346 -3.0897,-0.008 -4.6385,-0.0183 v 0 c 0.8863,-3.40072 -5.4791,-0.5146 -6.1366,-3.63144 v 0 c -0.8491,-4.02697 -3.6613,-7.84513 -6.1787,-12.84269 v 0 c -2.2928,3.94089 -3.9156,6.72811 -5.4442,9.3633 v 0 c -3.2708,0.13736 -6.8554,0.95042 -9.5332,0.21241 v 0 c -2.8675,-0.78747 -4.8768,-3.0418 -7.6378,-4.91145 v 0 c -6.4623,-0.27838 -3.5478,5.1605 -7.7571,7.09802 v 0 c -3.0356,1.39901 -3.2473,5.75927 -4.8517,9.07751 v 0 c -3.7141,-2.49968 -5.0378,-5.11098 -5.2176,-8.66737 v 0 c -0.1139,-2.26711 -6.9299,-0.79475 -8.6497,-4.44813 v 0 c -1.2776,-2.70846 -6.2141,-4.57263 -9.907,-7.07964 v 0 c -0.8749,2.04004 -1.4817,3.4592 -2.4189,5.64759 v 0 c -2.6453,-3.35671 0.1166,-8.16016 -7.8998,-9.22045 v 0 c -1.6127,2.83848 -3.4431,5.78133 -4.9519,8.80112 v 0 c -1.6789,3.36583 -3.0678,6.80313 -4.6239,10.30272 v 0 c 1.3782,1.17202 2.7614,2.35131 4.8156,4.1002 v 0 c -1.5973,0.58967 -3.5819,1.82573 -4.3902,1.5309 v 0 c -2.7122,-0.99253 -5.0063,-2.53075 -7.4034,-3.82918 v 0 c 1.3103,-0.70319 2.8812,-1.54738 6.4906,-3.48121 v 0 c -4.0272,0.16481 -5.3864,0.2234 -6.8248,0.28202 v 0 c -3.3831,-4.8584 3.0125,-11.1634 -5.3036,-16.18112 v 0 c -0.383,3.03812 -0.2833,5.41692 -1.0677,7.64744 v 0 c -0.9259,2.62595 -1.9387,5.47906 -4.2096,7.55577 v 0 c -1.5956,1.45953 6.7974,4.91143 -1.9941,4.19912 v 0 c -1.444,2.38614 -2.9303,4.76131 -4.327,7.16392 v 0 c -1.2783,2.20664 -2.4592,4.44083 -3.7602,6.7958 v 0 c -2.2291,-1.18298 -3.9745,-2.10963 -5.7541,-3.05824 v 0 c -0.6971,2.99233 -2.8755,2.52901 -5.2151,2.06756 v 0 c -1.0472,-0.2051 -2.1261,-0.41206 -3.121,-0.31134 v 0 c -0.5156,1.29472 -1.0828,2.71944 -1.7722,4.46645 v 0 c -4.787,-2.77618 -9.4215,-5.46453 -14.0718,-8.16565 v 0 c -1.5639,0.93031 -2.9096,1.73057 -4.7553,2.83484 v 0 c -1.5769,-2.1444 -3.1485,-4.28519 -4.7932,-6.52119 v 0 c -2.9157,2.07855 -5.3602,3.81821 -9.1386,6.51203 v 0 c -0.756,-3.56181 -1.1894,-5.60922 -1.691,-7.95864 v 0 c -4.1384,0.44311 -8.6849,2.756 -12.7915,-0.63001 v 0 c 1.1434,-2.96483 11.5822,-1.02736 6.702,-7.30859 v 0 c -3.0804,0.37174 -6.6849,0.80945 -11.18639,1.35333 v 0 c 1.0367,-2.86231 5.00039,-4.04531 7.24339,-6.75926 v 0 c -1.1716,-1.72133 -2.5643,-3.77238 -4.0613,-5.97539 v 0 c -2.14379,0.53656 -3.75219,0.93764 -7.07532,1.77082 v 0 c 2.07665,-2.73042 3.53973,-4.64776 5.64313,-7.41297 v 0 c -2.7338,0.59335 -4.63052,1.00541 -6.51669,1.41741 v 0 c -1.37708,-3.31094 -2.80322,-6.73176 -3.96636,-9.52624 v 0 c -3.39931,-0.23072 -5.78172,-0.39377 -8.53118,-0.58056 v 0 c -4.47108,2.44845 -4.832,5.64402 -1.76834,9.70027 v 0 c -3.57928,2.09126 -7.18004,4.2009 -11.5305,6.74456 v 0 c 1.38868,1.94114 2.87902,4.02149 4.5308,6.32885 v 0 c -0.99228,0.61531 -2.42334,1.4998 -4.87078,3.01794 v 0 c 3.08992,1.00166 5.47405,1.77086 7.93967,2.56926 v 0 c -4.64899,2.01624 -9.9307,1.07127 -12.14925,-1.13357 v 0 c -4.02353,-4.00133 -9.4869,-3.49222 -16.45625,-3.79622 v 0 c 3.21816,-1.67557 5.35744,-2.79266 7.26281,-3.78336 v 0 c -2.95097,-3.95921 -5.69075,-7.63644 -8.78513,-11.78791 v 0 c -2.31091,0.33881 -5.37643,0.80392 -6.60781,3.571 v 0 c -1.25023,2.811 -1.70772,6.92032 -4.50514,8.03189 v 0 c -4.96041,1.96864 -1.82693,5.15506 -4.35159,7.24454 v 0 c -1.97883,0.41752 -4.02642,0.85154 -6.88449,1.45586 v 0 c 0.78038,1.71038 1.51179,3.31096 2.49396,5.45533 v 0 c -2.17304,1.31666 -4.58291,2.7799 -6.99277,4.24303 v 0 c 1.08156,0.97791 2.15254,1.94485 3.63735,3.28531 v 0 c -3.08226,0.79656 -6.0081,1.55296 -9.31296,2.40817 v 0 c -6.76791,-4.18635 -1.06593,-11.39233 -7.83265,-15.70322 v 0 c -2.04079,1.31126 -4.31055,2.77443 -6.78779,4.36944 v 0 c -8.24577,-0.59146 -9.03133,-5.38027 -11.22935,-10.57922 v 0 c -3.15615,4.61662 -5.8158,8.50992 -8.70626,12.74194 v 0 c -0.64447,-0.0513 -1.84926,-0.10049 -3.02373,-0.25814 v 0 c -0.76015,-0.10059 -1.47646,-0.3608 -1.86393,-0.45968 v 0 c -1.3602,1.6884 -2.67753,3.32192 -4.22242,5.24106 v 0 c -3.20458,-6.77569 -6.05235,-12.79872 -8.5198,-18.01417 v 0 H 842.1923 c -0.67507,-0.91931 -1.66276,-2.27074 -2.93203,-4.00132 v 0 c 2.4481,-1.33135 5.0185,-2.73042 7.70051,-4.18808 v 0 c -3.22874,-3.42082 -6.37946,-1.62436 -9.45782,-0.69227 v 0 c -4.10788,-1.99969 5.04575,-4.84915 -0.90175,-6.83609 v 0 c -3.93787,-1.31486 0.13199,-5.11292 -4.83522,-6.53947 v 0 c -3.36936,2.99596 -7.16282,6.36919 -11.36442,10.10313 v 0 c -0.91934,-0.0441 -2.61801,-0.12459 -5.44744,-0.25638 v 0 c 1.00702,-2.54913 1.85945,-4.71372 2.67373,-6.77568 v 0 c -3.21868,-2.60777 -6.19374,-5.01407 -9.28927,-7.51922 v 0 c -1.92871,2.47042 -3.59484,4.60566 -5.38956,6.90392 v 0 c -1.77925,-2.25248 -3.43328,-4.34383 -5.25424,-6.65305 v 0 c -4.16979,3.47211 -8.21167,6.83797 -12.66137,10.54262 v 0 c 1.71729,1.60238 3.24346,3.02341 4.81934,4.49213 v 0 c -0.45841,0.3681 -0.82053,0.8808 -1.4096,1.10054 v 0 c -1.78571,0.6666 -5.30272,1.34234 -5.23616,1.80017 v 0 c 0.62839,4.40056 -5.40996,3.26692 -8.57844,5.25207 v 0 l -0.0972,9.38157 c -7.39618,-5.27953 -8.37036,-11.26408 -7.81638,-18.80708 v 0 c -3.88886,5.94979 -3.88886,5.94979 -12.13546,10.29165 v 0 c 0.24758,-5.27587 -0.75123,-9.88698 -6.28835,-13.22356 v 0 c -3.81492,3.9098 -7.5014,7.68037 -11.1723,11.46193 v 0 c -0.49687,0.50911 -1.48217,1.22329 -1.27959,1.56212 v 0 c 2.77247,4.60562 -2.84807,8.2956 -2.8446,12.5533 v 0 c -10e-5,2.80731 0.33562,5.61284 0.48621,7.92021 v 0 c -4.21561,2.02725 -8.14698,3.91524 -11.3665,5.46086 v 0 c -7.29952,-3.38441 -15.11206,-7.00846 -23.70572,-10.99695 v 0 c -3.38345,2.32021 -7.45167,1.84952 -11.66781,1.38073 v 0 c -4.11854,-0.45964 -8.38238,-0.91926 -12.2821,1.2251 v 0 c -2.1846,-1.64991 -4.44529,-3.60943 -7.08684,-5.2832 v 0 c -3.74451,-2.3733 -6.64396,-1.86609 -12.06064,2.04922 v 0 c -0.60208,-1.58402 -1.12186,-2.94648 -1.80634,-4.74304 v 0 c -2.65315,-0.3039 -5.57564,-0.64273 -8.69072,-1.00166 v 0 c 0.38838,-0.49993 0.53951,-1.05297 1.00135,-1.23976 v 0 c 5.51033,-2.24151 13.25135,-1.9247 16.56468,-7.42766 v 0 c -3.80214,-2.40809 -8.05341,-4.86199 -11.88919,-7.59421 v 0 c -5.05869,-3.60027 -5.235,-5.46087 -1.77645,-9.67282 v 0 l -22.99816,-3.52555 -2.20638,105.52321 H 1918.6588 l 2.5692,-247.8809 c -0.053,0 -0.1057,-7.7e-4 -0.1586,-7.7e-4 v 0 c -1.0996,0 -2.2259,0.28202 -3.3267,0.92662"
     style="display:inline;opacity:1;fill:url(#linearGradient24);stroke:none;stroke-width:2.20005" />
  <path
     id="path20"
     clip-path="url(#clipPath19)"
     style="display:inline;opacity:1;fill:url(#linearGradient123);fill-opacity:1;fill-rule:nonzero;stroke:none"
     d="M 313.65549 264.18848 C 313.4004 264.19251 312.49589 262.86274 309.58708 262.2158 C 304.81008 258.1458 305.34095 258.88119 305.08695 259.70719 C 302.82148 258.24434 301.91831 258.45522 301.63813 258.65433 C 301.71437 258.50219 301.81933 258.19901 301.90999 257.64582 C 302.70199 255.91682 299.992 253.94875 299.447 253.79675 C 295.242 256.66175 297.32688 254.22507 294.69488 252.34607 C 295.73588 252.29207 293.66587 251.57132 291.83087 251.03032 C 291.98487 248.04132 290.6618 248.69288 287.5728 246.90188 C 287.9798 245.61288 285.82885 249.40417 284.72685 246.19617 C 280.65885 244.39017 283.63318 245.35423 280.17118 241.89923 C 277.57318 240.96823 276.05512 240.55972 274.67212 239.80872 C 273.46412 239.29872 272.74817 238.8232 272.12017 237.9222 C 271.26617 234.9152 266.9332 237.1687 265.9812 236.2707 C 265.1112 232.9767 262.77118 233.87127 259.72618 235.90327 C 258.53618 235.31527 254.02222 233.5732 253.41922 236.7002 C 253.17322 238.5812 249.93102 238.66192 246.19102 238.82492 C 241.81402 239.12392 242.69413 240.48118 239.03913 241.27018 C 233.32613 241.37518 232.30903 240.49722 231.69803 242.82222 C 230.19603 246.55422 227.75684 239.87472 224.06384 242.79372 C 220.33984 243.19672 218.306 243.05586 216.473 241.86186 C 215.537 240.57486 213.23684 242.06726 208.88984 240.91226 C 206.17484 238.92826 204.05305 240.6278 201.62505 240.6918 C 200.15905 241.17796 198.75987 241.25967 197.43156 240.99144 L 197.43156 202.02311 C 197.43156 201.70055 197.61663 201.44094 197.84657 201.44094 L 420.68542 201.44094 L 420.8918 209.49066 C 417.5298 211.19766 419.8958 211.56291 417.8738 211.75791 C 413.9358 213.54391 411.32495 214.90509 411.24395 216.74409 C 409.90995 218.91609 406.86894 218.09826 404.80694 221.97226 C 405.57794 222.83626 404.49107 224.20694 400.26707 226.16594 C 399.18407 226.73894 395.83496 232.53104 396.05596 230.68904 C 392.93196 230.57204 393.47316 232.38318 392.84016 234.96318 C 392.62316 240.65118 391.48186 235.20411 389.31186 238.92311 C 388.29786 239.23311 383.54404 237.00605 384.41704 240.87805 C 378.96804 240.47805 379.37778 241.64907 379.07378 241.63507 C 378.54878 242.40307 377.10809 243.94931 372.51709 243.16431 C 369.76909 245.77131 369.85408 247.03311 365.96808 243.18711 C 365.56708 242.89311 361.67321 242.00615 360.78921 241.83715 C 357.88121 242.10115 358.71922 241.91785 356.08722 241.84285 C 354.68222 239.64285 352.61981 239.61885 351.36581 244.30585 C 350.97081 248.56885 351.38921 246.16687 348.71721 246.18287 C 348.20321 246.60387 347.41106 247.1252 345.43006 246.4502 C 344.91006 243.1972 343.67079 247.71771 341.21579 244.83671 C 340.91379 243.97771 338.66416 245.23398 338.48816 244.55798 C 336.16116 244.73198 334.9568 246.30086 335.7628 244.88486 C 335.1958 242.93086 332.24498 246.33017 330.81198 247.13817 C 329.81398 251.67117 326.80099 245.78073 326.76299 250.81873 C 328.05499 252.41673 325.14719 254.65092 322.12919 256.94392 C 321.66519 257.43192 320.227 258.90514 318.945 260.17914 C 318.10878 261.01014 317.06727 261.85635 316.664 262.19236 C 315.04397 260.85353 314.03945 261.88347 313.72819 263.1673 C 313.7535 263.90948 313.77143 264.18665 313.65549 264.18848 z M 316.664 262.19236 C 316.67306 262.19984 316.682 262.20754 316.6911 262.21517 C 316.41535 262.40572 316.44902 262.37148 316.664 262.19236 z M 301.63813 258.65433 C 301.58799 258.75439 301.55016 258.789 301.53742 258.78673 C 301.53721 258.78667 301.53626 258.78682 301.53607 258.78673 L 301.53562 258.7861 L 301.53517 258.7861 L 301.53471 258.78547 L 301.53426 258.78483 L 301.53381 258.7842 L 301.53336 258.78357 L 301.53336 258.78293 L 301.53291 258.7823 C 301.53019 258.76515 301.56007 258.70981 301.63813 258.65433 z "
     transform="matrix(4.3249619,0,0,-3.0831325,-853.88396,1701.0691)" />
  <path
     id="path28"
     style="display:inline;opacity:1;fill:#0c1018;fill-opacity:1;stroke:none;stroke-width:2.41321"
     d="m 1841.5938,915.93472 c -4.0004,3.82715 1.2632,9.93828 -6.0958,11.85071 -1.3681,4.1887 -2.8235,8.35956 -4.0703,12.57449 -0.844,2.85331 -1.3841,5.76591 -2.125,8.92975 -1.2416,-0.38549 -2.8408,-0.88631 -6.1386,-1.91754 1.8815,3.11559 3.239,5.3663 4.039,6.69495 -1.8402,6.50865 -3.5199,12.45828 -5.1992,18.40938 0.3793,2.91936 -8.2581,-1.09878 -4.793,4.74451 -3.1024,1.15456 -4.0211,2.54442 -2.3867,5.5012 1.5042,2.72765 -0.8389,5.07563 -3.9043,6.23909 -2.3388,0.88348 -5.0027,1.1625 -8.1777,1.85877 -1.415,-0.81972 -3.4029,-1.97343 -5.3965,-3.13244 -3.4271,5.1007 -4.8065,9.59621 -5.3047,17.10521 -3.4418,-1.7893 -6.841,-3.5597 -10.6933,-5.56469 1.1026,-1.278 2.5332,-2.94162 4.2285,-4.91132 -2.6232,-5.05666 -5.3279,-10.26926 -8.7754,-16.90546 -2.313,4.63132 -3.9003,7.81687 -5.6699,11.36428 -1.6211,-3.28296 -3.1551,-6.40195 -4.9864,-10.12117 -2.1949,2.8841 -4.0638,5.33365 -6.4511,8.46682 -0.4848,-3.24554 -0.8541,-5.72039 -1.5215,-10.17993 -1.8232,3.31821 -2.6847,4.8838 -4.2207,7.68192 -1.1245,0.14762 -3.9814,0.52409 -7.4688,0.98467 -0.5139,2.26712 -0.1828,6.18752 -1.7929,6.86177 -4.6371,1.94107 -1.9203,4.52643 -2.3848,6.89703 -0.4809,2.43258 -2.1158,4.71758 -3.2383,7.06858 -6.596,-1.3682 -6.4971,-1.3874 -7.4883,-4.7562 -0.9167,-3.11549 -2.0783,-6.17659 -3.3105,-9.79222 -1.3466,4.12686 -4.8904,9.00822 -3.2578,11.24682 3.3462,4.5918 -8.2162,4.5053 -3.6641,9.0331 -2.9304,-2.8753 -5.8631,-5.7521 -9.0293,-8.8521 -0.9905,1.1699 -1.905,2.2407 -3.0371,3.5695 -6.0866,-4.3494 2.6345,-10.51974 -2.7695,-14.95497 -6.9355,0.31066 -0.9996,6.87308 -6.7012,8.45267 -1.6256,-5.51923 -3.3034,-11.20191 -5.7969,-19.67362 -2.4635,8.59961 -4.7337,14.36723 -14.1601,15.10537 -2.2851,-4.12457 5.7717,-8.85181 -1.2207,-13.29592 -2.6441,3.17284 -4.553,6.1721 -3.002,10.21521 1.4813,3.86229 -0.405,6.35813 -5.0742,7.75946 -0.9982,-1.94997 -1.357,-4.58587 -3.0488,-5.48475 -2.3864,-1.26248 -5.7596,-1.23589 -9.7129,-1.93878 0.2859,-2.49404 0.5797,-5.08879 0.8769,-7.68426 -0.2643,0.0132 -0.573,3.6e-4 -0.8847,-0.0117 -0.6738,-0.0289 -1.3515,-0.0551 -1.5332,0.18095 -2.0768,2.67705 -3.95,5.46563 -6.0372,8.42914 -8.9636,-4.19508 -2.5273,-12.24074 -7.2968,-17.29079 -1.649,3.3359 -2.7811,6.82206 -4.9844,9.75693 -2.1578,2.87761 3.9571,7.55335 -3.291,8.87094 -1.2053,-2.46998 -2.0017,-5.38212 -3.9199,-7.62073 -1.4993,-1.75169 -4.3932,-2.67187 -6.6368,-3.94326 -1.3575,4.47494 -2.8107,9.25716 -3.9941,13.15265 -3.5141,0.16074 -5.8767,0.29598 -8.2402,0.36649 -1.5412,0.0409 -3.0899,-0.0114 -4.6387,-0.0211 0.8863,-4.09161 -5.4792,-0.61855 -6.1367,-4.36857 -0.8491,-4.84515 -3.6623,-9.44034 -6.1797,-15.45317 -2.2928,4.74156 -3.9148,8.09496 -5.4434,11.26555 -3.2708,0.16519 -6.8554,1.14409 -9.5332,0.25615 -2.8675,-0.94749 -4.8777,-3.66051 -7.6387,-5.91005 -6.4621,-0.33496 -3.5465,6.20856 -7.7558,8.53969 -3.0356,1.68335 -3.2491,6.92999 -4.8535,10.92247 -3.7141,-3.00756 -5.037,-6.15011 -5.2168,-10.42905 -0.1139,-2.7277 -6.9306,-0.9552 -8.6504,-5.35072 -1.2776,-3.25884 -6.2134,-5.50222 -9.9063,-8.51856 -0.8749,2.45458 -1.4807,4.16306 -2.4179,6.79599 -2.6453,-4.03859 0.116,-9.81841 -7.9004,-11.09401 -1.6127,3.41507 -3.4443,6.95551 -4.9531,10.5888 -1.6789,4.04961 -3.067,8.18525 -4.6231,12.39585 1.3782,1.41011 2.7622,2.82829 4.8164,4.9325 -1.5973,0.7095 -3.5823,2.1971 -4.3906,1.8424 -2.7122,-1.1942 -5.0072,-3.0437 -7.4043,-4.60583 1.3103,-0.84607 2.8808,-1.86334 6.4902,-4.19002 -4.0272,0.19828 -5.3858,0.27035 -6.8242,0.34073 -3.3831,-5.84522 3.0134,-13.43201 -5.3027,-19.46913 -0.383,3.65534 -0.284,6.51634 -1.0684,9.19999 -0.9259,3.15952 -1.9381,6.59323 -4.209,9.09184 -1.5956,1.75603 6.7974,5.90947 -1.9941,5.05246 -1.444,2.87096 -2.9314,5.72856 -4.3281,8.61946 -1.2783,2.6549 -2.4588,5.3419 -3.7598,8.1754 -2.2291,-1.4234 -3.9743,-2.5387 -5.7539,-3.68 -0.6971,3.6002 -2.8753,3.0437 -5.2149,2.4886 -1.0472,-0.2468 -2.1261,-0.4947 -3.121,-0.3736 -0.5156,1.5579 -1.0821,3.2724 -1.7715,5.3743 -4.787,-3.3402 -9.422,-6.5752 -14.0723,-9.8251 -1.5639,1.1193 -2.9102,2.0811 -4.7559,3.4097 -1.5769,-2.58 -3.1482,-5.1561 -4.7929,-7.8464 -2.9157,2.5008 -5.3603,4.5937 -9.1387,7.8348 -0.756,-4.2855 -1.1898,-6.747 -1.6914,-9.5738 -4.1384,0.5332 -8.6844,3.315 -12.791,-0.7589 1.1434,-3.56725 11.5814,-1.2361 6.7012,-8.79344 -3.0804,0.44721 -6.6841,0.97408 -11.1856,1.62848 1.0368,-3.44382 5.0011,-4.86777 7.2441,-8.13316 -1.1716,-2.07101 -2.5656,-4.53785 -4.0625,-7.18842 -2.1439,0.6455 -3.7511,1.12892 -7.0742,2.1314 2.0767,-3.28525 3.5391,-5.59337 5.6426,-8.92036 -2.7338,0.71396 -4.6315,1.21035 -6.5176,1.70605 -1.3771,-3.98356 -2.8017,-8.10072 -3.9648,-11.46297 -3.3993,-0.27757 -5.7818,-0.47318 -8.5313,-0.69793 -4.4711,2.94595 -4.8332,6.79172 -1.7695,11.67212 -3.5793,2.51606 -7.1789,5.05394 -11.5293,8.11432 1.3887,2.33559 2.8775,4.83758 4.5293,7.61376 -0.9923,0.74031 -2.4217,1.80415 -4.8691,3.63067 3.0899,1.20522 5.4737,2.13189 7.9394,3.0925 -4.649,2.42582 -9.9318,1.28751 -12.1504,-1.36535 -4.0235,-4.81423 -9.4858,-4.20013 -16.4551,-4.56589 3.2181,-2.01603 5.3564,-3.35985 7.2618,-4.55182 -2.951,-4.76349 -5.6908,-9.18923 -8.7852,-14.18417 -2.3109,0.40763 -5.376,0.96886 -6.6074,4.29802 -1.2502,3.3821 -1.7085,8.32564 -4.5059,9.66296 -4.9604,2.36867 -1.8268,6.20184 -4.3515,8.71585 -1.9788,0.50233 -4.0247,1.02594 -6.8828,1.75302 0.7804,2.05789 1.5099,3.98326 2.4921,6.56336 -2.1731,1.5841 -4.5822,3.3436 -6.9921,5.1041 1.0816,1.1765 2.1537,2.3398 3.6386,3.9526 -3.0823,0.9584 -6.0095,1.8685 -9.3144,2.8975 -6.7679,-5.037 -1.0653,-13.7069 -7.8321,-18.89355 -2.0407,1.57771 -4.3099,3.33775 -6.7871,5.25685 -8.2458,-0.7117 -9.0324,-6.47205 -11.2304,-12.72719 -3.1561,5.55454 -5.8146,10.23906 -8.7051,15.33079 -0.6444,-0.061 -1.8509,-0.1228 -3.0254,-0.3124 -0.7601,-0.1211 -1.4758,-0.4333 -1.8633,-0.5523 -1.3602,2.0314 -2.6777,3.9959 -4.2226,6.3049 -3.2046,-8.1522 -6.0522,-15.39837 -8.5196,-21.67336 h -17.0586 c -0.675,-1.10607 -1.6623,-2.73071 -2.9316,-4.81271 2.4481,-1.6019 5.0172,-3.28687 7.6992,-5.04061 -3.2287,-4.11579 -6.3786,-1.95335 -9.457,-0.83188 -4.1079,-2.40597 5.0451,-5.83408 -0.9024,-8.22477 -3.9378,-1.58192 0.1333,-6.15113 -4.834,-7.86757 -3.3692,3.60468 -7.1636,7.66123 -11.3652,12.15385 -0.9193,-0.0529 -2.618,-0.14926 -5.4472,-0.30784 1.0069,-3.06699 1.8595,-5.67099 2.6738,-8.15192 -3.2187,-3.13761 -6.1935,-6.03319 -9.2891,-9.04724 -1.9287,2.9723 -3.5959,5.5419 -5.3906,8.30702 -1.7793,-2.71013 -3.4329,-5.22553 -5.2539,-8.00388 -4.1698,4.17751 -8.2105,8.22522 -12.6602,12.68259 1.7172,1.92796 3.2425,3.63776 4.8184,5.40485 -0.4584,0.44289 -0.8211,1.06091 -1.4102,1.32536 -1.7857,0.80203 -5.3008,1.61583 -5.2343,2.16664 0.6284,5.29465 -5.4116,3.93051 -8.5801,6.31893 l -0.096,11.28678 c -7.3962,-6.35224 -8.3704,-13.55204 -7.8164,-22.62752 -3.8888,7.15859 -3.8903,7.1579 -12.1367,12.38184 0.2473,-6.3477 -0.7501,-11.89461 -6.2872,-15.90909 -3.8149,4.70414 -7.5009,9.23952 -11.1718,13.78941 -0.4969,0.61247 -1.4839,1.47225 -1.2813,1.88001 2.7725,5.54118 -2.8472,9.98026 -2.8437,15.10291 -10e-5,3.3777 0.3357,6.7529 0.4863,9.529 -4.2156,2.4392 -8.1477,4.7107 -11.3672,6.5704 -7.2995,-4.072 -15.1114,-8.4313 -23.7051,-13.2302 -3.3834,2.7917 -7.4518,2.2255 -11.6679,1.6615 -4.1185,-0.5531 -8.3816,-1.1067 -12.2813,1.4734 -2.1846,-1.9851 -4.4464,-4.3429 -7.0879,-6.35656 -3.7446,-2.85547 -6.6438,-2.24571 -12.0605,2.46506 0.3279,2.2435 0.6121,4.2097 0.8554,5.9218 l -2.6621,-11.62735 c -0.4815,-2.10397 6.7341,40.27635 2.6641,11.63675 l 9.5391,41.6832 c 0.089,0.3867 -0.061,0.6415 -0.4063,0.6884 l -5.668,-26.1405 -4.3711,1.9409 -2.5546,4.8691 c -0.098,-0.2788 -0.1955,-0.5597 -0.293,-0.8459 0.07,0.3355 0.1398,0.6701 0.209,1.0034 L 1050.5898,1080 h 48.9922 l -5.1484,-16.7245 c -0.019,-0.061 -0.036,-0.1207 -0.055,-0.1785 l 14.5137,2.3617 c 2.6652,0.4332 -0.1411,8.9171 -3.1797,14.5413 H 1920 V 928.60321 c -0.7156,-0.61209 -1.5354,-1.19614 -2.4766,-1.746 -5.5226,9.0359 -7.3493,14.23657 -7.3652,20.07313 0,0.79757 -0.3638,1.72799 -0.9297,2.37578 -2.2556,2.56683 -4.6567,5.04746 -6.959,7.51744 h -15.1875 c 1.735,-1.65905 3.1941,-3.05396 4.7344,-4.52363 -1.8673,-0.46045 -3.8929,-0.95933 -6.0742,-1.4969 5.6892,-2.90397 4.8025,-7.10651 3.7266,-12.3019 -3.9402,0.20923 -7.968,0.41529 -12.5586,0.65328 1.4179,-1.98739 2.9299,-3.70113 3.8925,-5.60695 0.5512,-1.09512 0.5042,-3.55402 0.2325,-3.60479 -6.3335,-1.16551 1.8601,-8.28791 -5.4043,-8.777 -2.6708,3.21233 -4.8596,6.64736 -1.209,10.5935 -2.6203,0.73815 -4.8919,1.37925 -7.7559,2.18779 1.6134,2.93272 2.8704,5.22268 4.7051,8.55846 -3.3927,-0.73141 -5.9652,-1.2874 -8.5586,-1.8494 -0.017,1.91039 0.4635,3.93577 -0.1934,5.66098 -0.6082,1.57532 -2.449,2.82267 -3.7695,4.23928 1.3949,0.68749 2.5142,1.2373 3.7012,1.8212 -0.4557,0.44733 -0.8301,1.19271 -1.3594,1.28306 -5.5506,0.94076 -7.6287,-2.74238 -10.4863,-5.4636 3.0535,-1.60824 6.4371,-2.99624 4.0254,-6.84769 -1.8745,0.37021 -3.7986,0.74711 -5.7657,1.13502 -0.068,-5.05005 5.0819,-10.54485 -3.0039,-14.47559 -1.3398,-0.65224 -0.3569,-4.20561 -1.0449,-6.27902 -0.6441,-1.93674 -2.0771,-3.69301 -3.3222,-5.79494 z m -765.7891,114.62038 c -3.4174,-16.4614 -7.3807,-35.3766 -7.5996,-35.03755 2.0613,15.44295 4.7923,26.79195 7.5996,35.03755 z" />
  <path
     id="path22"
     style="display:inline;opacity:1;fill:#0c1018;fill-opacity:1;stroke:none;stroke-width:2.20005"
     d="M 0.82617188 890.04688 C 0.55243206 890.06013 0.27752217 890.14478 0 890.32422 L 0 1079.1992 C 0 1079.6424 0.35758124 1080 0.80078125 1080 L 1238.4551 1080 L 1236.2754 975.66992 L 1213.2773 979.19531 C 1216.7358 983.40731 1216.5587 985.26884 1211.5 988.86914 C 1207.6642 991.60134 1203.4135 994.05479 1199.6113 996.46289 C 1202.9246 1001.9657 1210.6655 1001.6491 1216.1758 1003.8906 C 1216.6376 1004.0774 1216.7894 1004.631 1217.1777 1005.1309 C 1214.0627 1005.4898 1211.1395 1005.827 1208.4863 1006.1309 C 1207.8018 1007.9274 1207.2818 1009.291 1206.6797 1010.875 C 1201.263 1006.9597 1198.3637 1006.4529 1194.6191 1008.8262 C 1191.9776 1010.4999 1189.7178 1012.4595 1187.5332 1014.1094 C 1183.6335 1011.965 1179.3685 1012.4231 1175.25 1012.8828 C 1171.0339 1013.3516 1166.9654 1013.8223 1163.582 1011.502 C 1154.9883 1015.4905 1147.1765 1019.1156 1139.877 1022.5 C 1136.6575 1020.9544 1132.7254 1019.0664 1128.5098 1017.0391 C 1128.6604 1014.7318 1128.9962 1011.9264 1128.9961 1009.1191 C 1128.9996 1004.8614 1123.3798 1001.17 1126.1523 996.56445 C 1126.3549 996.22565 1125.3699 995.51301 1124.873 995.00391 C 1121.2021 991.22231 1117.5161 987.45082 1113.7012 983.54102 C 1108.1641 986.87762 1107.1646 991.48982 1107.4121 996.76562 C 1099.1655 992.42383 1099.1661 992.42246 1095.2773 986.47266 C 1095.8313 994.01566 1094.8571 1000.0017 1087.4609 1005.2812 L 1087.3633 995.89844 C 1084.1948 993.91324 1078.1568 995.04708 1078.7852 990.64648 C 1078.8517 990.18868 1075.3345 989.5123 1073.5488 988.8457 C 1072.9597 988.6259 1072.5971 988.11419 1072.1387 987.74609 C 1073.7146 986.27739 1075.2418 984.85631 1076.959 983.25391 C 1072.5093 979.54921 1068.4667 976.18304 1064.2969 972.71094 C 1062.4759 975.02014 1060.8223 977.11078 1059.043 979.36328 C 1057.2483 977.06508 1055.581 974.93134 1053.6523 972.46094 C 1050.5567 974.96604 1047.582 977.37267 1044.3633 979.98047 C 1045.1776 982.04247 1046.0301 984.20676 1047.0371 986.75586 C 1044.2077 986.88766 1042.5091 986.96772 1041.5898 987.01172 C 1037.3882 983.27772 1033.5959 979.9042 1030.2266 976.9082 C 1025.2594 978.3348 1029.3284 982.13247 1025.3906 983.44727 C 1019.4431 985.43427 1028.5962 988.2835 1024.4883 990.2832 C 1021.4099 989.3511 1018.26 987.55576 1015.0312 990.97656 C 1017.7133 992.43416 1020.2824 993.83266 1022.7305 995.16406 C 1021.4612 996.89456 1020.4738 998.24672 1019.7988 999.16602 L 1002.7402 999.16602 C 1000.2728 1004.3814 997.4253 1010.4041 994.2207 1017.1797 C 992.67578 1015.2606 991.35825 1013.6279 989.99805 1011.9395 C 989.61055 1012.0384 988.89487 1012.2978 988.13477 1012.3984 C 986.96027 1012.556 985.75573 1012.6052 985.11133 1012.6562 C 982.22083 1008.4243 979.5604 1004.5306 976.4043 999.91406 C 974.2063 1005.1129 973.42158 1009.9026 965.17578 1010.4941 C 962.69858 1008.8991 960.42742 1007.4363 958.38672 1006.125 C 951.61992 1010.4359 957.32259 1017.6417 950.55469 1021.8281 C 947.24984 1020.9729 944.32449 1020.2165 941.24219 1019.4199 C 942.72709 1018.0794 943.79731 1017.1127 944.87891 1016.1348 C 942.46901 1014.6716 940.05982 1013.2072 937.88672 1011.8906 C 938.86892 1009.7462 939.60046 1008.1459 940.38086 1006.4355 C 937.52276 1005.8312 935.47489 1005.398 933.49609 1004.9805 C 930.97139 1002.891 934.10493 999.70503 929.14453 997.73633 C 926.34713 996.62483 925.88887 992.51413 924.63867 989.70312 C 923.40727 986.93612 920.34215 986.47161 918.03125 986.13281 C 914.93685 990.28431 912.19709 993.96072 909.24609 997.91992 C 911.15149 998.91062 913.29167 1000.0275 916.50977 1001.7031 C 909.54047 1002.0071 904.07623 1001.4987 900.05273 1005.5 C 897.83413 1007.7049 892.55134 1008.649 887.90234 1006.6328 C 890.36804 1005.8344 892.75385 1005.0662 895.84375 1004.0645 C 893.39635 1002.5464 891.96496 1001.6622 890.97266 1001.0469 C 892.62446 998.73952 894.11521 996.658 895.50391 994.7168 C 891.15351 992.1732 887.55196 990.06386 883.97266 987.97266 C 887.03636 983.91636 886.67618 980.72194 882.20508 978.27344 C 879.45558 978.46024 877.07313 978.62282 873.67383 978.85352 C 872.51073 981.64802 871.08413 985.06801 869.70703 988.37891 C 867.82093 987.96691 865.92325 987.55629 863.18945 986.96289 C 865.29295 989.72809 866.75728 991.6445 868.83398 994.375 C 865.51088 993.5418 863.90171 993.14002 861.75781 992.60352 C 860.26091 994.80652 858.86887 996.85878 857.69727 998.58008 C 859.94027 1001.294 863.90265 1002.4775 864.93945 1005.3398 C 860.43795 1004.7959 856.83431 1004.358 853.75391 1003.9863 C 848.87371 1010.2675 859.31168 1008.33 860.45508 1011.2949 C 856.34848 1014.6809 851.80246 1012.3669 847.66406 1011.9238 C 847.16246 1014.2732 846.72866 1016.321 845.97266 1019.8828 C 842.19426 1017.189 839.74968 1015.4496 836.83398 1013.3711 C 835.18928 1015.6071 833.61792 1017.7482 832.04102 1019.8926 C 830.19532 1018.7883 828.84906 1017.9869 827.28516 1017.0566 C 822.63486 1019.7578 818.00184 1022.4465 813.21484 1025.2227 C 812.52544 1023.4757 811.95701 1022.0507 811.44141 1020.7559 C 810.44651 1020.6552 809.36751 1020.8633 808.32031 1021.0684 C 805.98069 1021.5298 803.80257 1021.9923 803.10547 1019 C 801.32587 1019.9486 799.58066 1020.8756 797.35156 1022.0586 C 796.05056 1019.7036 794.8701 1017.4683 793.5918 1015.2617 C 792.1951 1012.859 790.70767 1010.4839 789.26367 1008.0977 C 780.47217 1008.81 788.86513 1005.3599 787.26953 1003.9004 C 784.99863 1001.8237 783.98645 998.96975 783.06055 996.34375 C 782.27615 994.11325 782.37519 991.73537 781.99219 988.69727 C 773.67609 993.71497 780.07255 1000.0186 776.68945 1004.877 C 775.25105 1004.8184 773.89243 1004.7605 769.86523 1004.5957 C 773.47463 1006.5295 775.04517 1007.373 776.35547 1008.0762 C 773.95837 1009.3746 771.66337 1010.9138 768.95117 1011.9062 C 768.14287 1012.201 766.1598 1010.9647 764.5625 1010.375 C 766.6167 1008.6261 767.99875 1007.4474 769.37695 1006.2754 C 767.82085 1002.7758 766.43281 999.33846 764.75391 995.97266 C 763.24511 992.95286 761.41348 990.01027 759.80078 987.17188 C 751.78438 988.23207 754.54764 993.03392 751.90234 996.39062 C 750.96514 994.20222 750.35732 992.78424 749.48242 990.74414 C 745.78952 993.25114 740.85377 995.11572 739.57617 997.82422 C 737.85637 1001.4775 731.03968 1000.0044 730.92578 1002.2715 C 730.74598 1005.8279 729.42308 1008.4398 725.70898 1010.9395 C 724.10458 1007.6212 723.89302 1003.2604 720.85742 1001.8613 C 716.64812 999.92388 719.56191 994.48527 713.09961 994.76367 C 710.33861 996.63337 708.32844 998.88828 705.46094 999.67578 C 702.78314 1000.4137 699.19853 999.60019 695.92773 999.46289 C 694.39913 996.82769 692.77718 994.04051 690.48438 990.09961 C 687.96698 995.09711 685.15574 998.91446 684.30664 1002.9414 C 683.64914 1006.0582 677.28362 1003.1716 678.16992 1006.5723 C 676.62112 1006.5803 675.07245 1006.6258 673.53125 1006.5918 C 671.16775 1006.5332 668.80316 1006.4188 665.28906 1006.2852 C 664.10566 1003.0475 662.65242 999.07477 661.29492 995.35547 C 659.05132 996.41217 656.1575 997.17691 654.6582 998.63281 C 652.74 1000.4934 651.94358 1002.9139 650.73828 1004.9668 C 643.49018 1003.8717 649.60507 999.9835 647.44727 997.5918 C 645.24397 995.1525 644.11189 992.25698 642.46289 989.48438 C 637.69339 993.68168 644.12962 1000.3688 635.16602 1003.8555 C 633.07882 1001.3924 631.20571 999.07461 629.12891 996.84961 C 628.94721 996.65341 628.2695 996.67522 627.5957 996.69922 C 627.284 996.70922 626.97524 996.71998 626.71094 996.70898 C 627.00814 998.86618 627.30394 1001.0208 627.58984 1003.0938 C 623.63654 1003.6779 620.26335 1003.6558 617.87695 1004.7051 C 616.18515 1005.4522 615.82437 1007.643 614.82617 1009.2637 C 610.15697 1008.099 608.27065 1006.0266 609.75195 1002.8164 C 611.30295 999.45606 609.3941 996.96327 606.75 994.32617 C 599.7576 998.01987 607.8144 1001.9489 605.5293 1005.377 C 596.1029 1004.7635 593.83264 999.96781 591.36914 992.82031 C 588.87564 999.86151 587.19982 1004.5846 585.57422 1009.1719 C 579.87262 1007.859 585.80659 1002.4066 578.87109 1002.1484 C 573.46709 1005.8347 582.18816 1010.9631 576.10156 1014.5781 C 574.96946 1013.4737 574.05495 1012.5818 573.06445 1011.6094 C 569.89825 1014.186 566.96556 1016.577 564.03516 1018.9668 C 568.58726 1015.2035 557.02489 1015.2754 560.37109 1011.459 C 562.00369 1009.5984 558.45988 1005.5433 557.11328 1002.1133 C 555.88108 1005.1184 554.72139 1007.6606 553.80469 1010.25 C 552.81349 1013.05 552.91045 1013.0679 546.31445 1014.2051 C 545.19195 1012.2511 543.55707 1010.3519 543.07617 1008.3301 C 542.61167 1006.3598 545.32851 1004.209 540.69141 1002.5957 C 539.08131 1002.0353 539.41234 998.77883 538.89844 996.89453 C 535.41104 996.51173 532.55614 996.19692 531.43164 996.07422 C 529.89564 993.74852 529.03218 992.44931 527.20898 989.69141 C 526.54158 993.39791 526.1723 995.45484 525.6875 998.15234 C 523.3002 995.54824 521.43123 993.51038 519.23633 991.11328 C 517.40503 994.20448 515.8711 996.79874 514.25 999.52734 C 512.4804 996.57894 510.89308 993.93133 508.58008 990.08203 C 505.13258 995.59773 502.42789 999.93006 499.80469 1004.1328 C 501.49999 1005.7699 502.9306 1007.1526 504.0332 1008.2148 C 500.1809 1009.8812 496.78164 1011.3508 493.33984 1012.8379 C 492.84164 1006.5969 491.46421 1002.8624 488.03711 998.62305 C 486.04351 999.58635 484.05563 1000.5453 482.64062 1001.2266 C 479.46563 1000.6479 476.79974 1000.4159 474.46094 999.68164 C 471.39554 998.71464 469.05244 996.76124 470.55664 994.49414 C 472.19104 992.03664 471.27232 990.88343 468.16992 989.92383 C 471.63502 985.06723 462.99765 988.40492 463.37695 985.97852 C 461.69765 981.03232 460.01793 976.08929 458.17773 970.67969 C 458.97773 969.57539 460.3353 967.70278 462.2168 965.11328 C 458.919 965.97038 457.31973 966.38858 456.07812 966.70898 C 455.33722 964.07938 454.79712 961.65861 453.95312 959.28711 C 452.70633 955.78391 451.25091 952.31734 449.88281 948.83594 C 442.52381 947.24644 447.78936 942.16527 443.78906 938.98438 C 442.54386 940.73137 441.10894 942.19108 440.46484 943.80078 C 439.77684 945.52408 440.75972 948.47938 439.41992 949.02148 C 431.33412 952.28848 436.48402 956.85543 436.41602 961.05273 C 434.44892 960.73033 432.52684 960.41707 430.65234 960.10938 C 428.24064 963.31047 431.62228 964.46408 434.67578 965.80078 C 431.81818 968.06248 429.74005 971.12174 424.18945 970.33984 C 423.66015 970.26474 423.28578 969.64719 422.83008 969.27539 C 424.01708 968.79009 425.13635 968.33312 426.53125 967.76172 C 425.21075 966.58432 423.36992 965.54563 422.76172 964.23633 C 422.10482 962.80243 422.58536 961.11905 422.56836 959.53125 C 419.97496 959.99835 417.40247 960.46046 414.00977 961.06836 C 415.84447 958.29586 417.10144 956.39258 418.71484 953.95508 C 415.85084 953.28308 413.58124 952.75022 410.96094 952.13672 C 414.61154 948.85692 412.4208 946.00193 409.75 943.33203 C 402.4856 943.73853 410.68116 949.66021 404.34766 950.62891 C 404.07596 950.67111 404.02693 952.7148 404.57812 953.625 C 405.54072 955.209 407.0528 956.63336 408.4707 958.28516 C 403.8801 958.08736 399.85211 957.91413 395.91211 957.74023 C 394.83611 962.05833 393.95142 965.55124 399.64062 967.96484 C 397.45932 968.41164 395.43371 968.82824 393.56641 969.21094 C 395.10671 970.43244 396.56383 971.5918 398.29883 972.9707 L 383.11133 972.9707 C 380.80903 970.9178 378.40794 968.8541 376.15234 966.7207 C 375.58644 966.1823 375.22461 965.41095 375.22461 964.74805 C 375.20871 959.89705 373.38198 955.5726 367.85938 948.0625 C 358.27627 952.7158 361.27084 960.26815 358.58594 966.43945 C 356.88154 966.73245 355.05775 967.05038 352.87305 967.42578 C 354.71195 969.13068 355.95378 970.27816 357.10938 971.34766 C 351.00097 974.13846 347.33387 977.44322 347.92188 982.16602 C 350.33607 983.53222 352.52819 984.77908 357.08789 987.35938 C 354.65619 987.10117 352.42729 987.16456 350.42969 987.22656 C 346.10429 987.36026 342.86243 987.49514 341.01953 984.36914 C 336.36093 985.75904 331.70473 987.14947 328.61133 988.07617 C 324.70743 986.54887 321.89933 985.44612 318.55273 984.13672 C 321.99493 981.67732 324.98498 978.74604 321.67578 974.40234 C 318.24608 974.25764 314.42864 974.10045 310.46484 973.93555 C 307.94474 967.18185 312.48577 960.00923 305.63477 954.39453 C 301.78507 955.53913 298.31506 956.57097 294.81836 957.60938 C 291.82466 954.89177 289.33967 952.63922 286.82617 950.35742 C 279.29347 954.44492 285.59645 960.24914 282.49805 963.49414 C 278.73225 962.79824 275.81169 962.2566 271.90039 961.5332 C 273.10999 964.0017 273.91647 965.65224 274.63477 967.11914 C 272.72917 968.40284 271.05288 969.52828 269.11328 970.83398 C 271.43948 971.89428 272.87784 972.54932 274.30664 973.20312 C 272.99684 973.82942 271.68985 974.45411 269.81445 975.34961 C 272.37645 976.69191 274.53259 977.81647 276.99609 979.10938 C 273.63839 979.77408 270.80444 980.33664 267.49414 980.99414 C 266.43444 978.71964 264.84119 976.46695 264.43359 974.12305 C 263.95599 971.38715 262.85799 969.4166 258.77539 968.75 C 253.71539 972.2184 251.80988 974.59827 253.20898 978.50977 C 254.26508 981.45077 252.87541 983.17111 250.25391 985.00781 C 249.40381 985.60671 249.04048 986.53522 248.39648 987.38672 C 250.31288 989.18862 252.09283 990.86454 253.92383 992.58594 C 252.30613 994.61314 250.87541 996.40718 249.32031 998.35938 C 242.79341 997.24227 236.64413 996.19054 230.54883 995.14844 C 228.90103 998.35874 226.46447 999.2955 222.57617 997.2207 C 225.97627 992.4795 217.33997 995.8638 217.29297 993.3457 C 218.52367 992.225 219.84263 991.03255 221.11523 989.87695 C 218.24523 987.12095 215.45324 984.43389 212.52734 981.62109 C 211.31654 982.89189 210.47515 983.78078 209.53125 984.77148 C 207.69415 982.45868 206.04664 980.3837 204.40234 978.3125 C 202.19534 979.0908 200.24575 979.77417 199.21875 980.13867 C 199.60065 983.06317 199.94035 985.66882 200.46875 989.73242 C 193.46425 985.62862 194.60462 980.27986 190.51562 976.44336 C 188.75893 979.60416 191.15544 983.40984 184.80664 984.93164 C 184.20104 984.39144 183.03345 983.74613 182.62305 982.92383 C 181.08135 979.77403 180.8789 975.96047 178.0918 973.54688 C 175.0754 970.93188 169.75055 969.58089 165.37305 967.74219 C 164.85535 967.52369 163.98178 967.71094 163.76758 967.71094 C 162.54738 968.80794 161.58966 969.67214 160.56836 970.58594 C 155.56936 967.19244 151.13143 964.17792 146.42773 960.98242 C 144.90373 962.85952 143.70417 964.33683 142.26367 966.11133 C 139.31707 963.61343 138.01457 962.50973 136.69727 961.39453 C 134.23427 961.93843 131.87508 962.45692 129.35938 963.01172 C 128.36947 961.09992 127.57938 959.58504 126.67578 957.83984 C 125.88218 958.53394 125.17202 957.36161 124.41992 956.19141 C 123.63552 954.97181 122.80276 953.75243 121.78906 954.64062 C 120.45576 951.97242 119.8656 950.25088 118.75 948.70898 C 117.699 947.25678 115.98614 946.27293 113.52344 947.61523 C 112.47994 946.13923 111.43412 944.66535 110.39062 943.18945 C 109.26592 944.31195 108.14092 945.42853 105.91992 947.64062 C 103.40642 942.80792 101.55915 939.25223 99.439453 935.17773 C 97.583253 935.35713 95.695416 931.82346 93.853516 928.28906 C 92.019713 924.76576 90.233153 921.23914 88.564453 921.39844 C 87.120953 919.32174 85.667494 917.24179 83.558594 914.21289 C 82.504294 916.78949 81.926659 918.19875 81.318359 919.68945 C 77.523959 919.28835 73.322106 913.18061 70.441406 917.53711 C 70.032906 918.16161 67.408975 918.07428 64.796875 917.98828 C 63.596375 917.94928 62.396416 917.91145 61.416016 917.93945 C 60.714116 919.31095 59.943931 920.82088 58.457031 923.73438 C 54.517731 919.55177 52.419137 908.51166 46.365234 907.63086 C 45.022834 909.18736 42.878547 910.63994 42.623047 912.24414 C 42.325047 914.10844 43.686053 916.10562 44.501953 918.57422 C 42.518653 919.24262 40.589928 917.64974 38.548828 916.05664 C 36.438428 914.40854 34.204556 912.75823 31.660156 913.61523 C 31.474556 906.15833 29.587016 900.02004 23.916016 894.77344 C 17.442116 894.93454 17.442466 894.93422 11.259766 898.20312 C 10.156666 896.32782 9.1087438 894.55201 7.4648438 891.75391 C 5.9104447 893.00821 4.5694875 892.10998 3.3046875 891.20898 C 2.4585551 890.60898 1.6473913 890.0071 0.82617188 890.04688 z " />
</svg>
