<svg xmlns="http://www.w3.org/2000/svg" fill="none" viewBox="0 0 24 24" id="Greensock-Icon--Streamline-Svg-Logos" height="24" width="24">
  <desc>
    Greensock Icon Streamline Icon: https://streamlinehq.com
  </desc>
  <path fill="#000000" d="M5.0444 10.52295c-0.686025 0.3227 -2.5018 1.775425 -2.8515275 2.205825 -0.3631925 0.430425 -0.4707625 -0.242075 -0.094165 -1.358475 0.2958375 -0.901175 1.0491675 -2.1252 2.3134675 -3.1743 0.739725 -0.605275 2.3673 -1.479525 3.362575 -1.9907 0.2018 -0.107625 2.8112 -1.21055 5.138125 -1.762 0.201825 -0.053825 -0.242075 0.33625 -0.309375 0.55145 -0.3497 1.022225 -7.33055 5.4071 -7.33055 5.4071l-0.22855 0.1211Z" stroke-width="0.25"></path>
  <path fill="#000000" d="M14.8767 22.857c0.12105 0.7263 0.013475 0.780125 -0.739725 0.8743 -0.75325 0.09415 -1.304725 -0.18835 -1.50645 -0.3766 -0.2018 -0.1884 -0.2421 -0.605275 -0.04035 -0.981875 0.1211 -0.24215 0.24215 -0.32285 0.30945 -0.61875 0.067225 -0.282425 0.121025 -0.349725 0.174775 -0.4573 0.053775 -0.094225 0.0673 -0.1884 0.0807 -0.847425 0.013475 -0.659025 0 -1.896525 0.0673 -2.42105 0.067275 -0.538 2.394225 0.242075 2.394225 0.242075s-0.551525 1.37195 -0.69945 1.7082c-0.147975 0.336325 -0.1345 0.981875 -0.1345 1.1164 0 0.1345 -0.05375 0.403475 -0.094175 0.41695 -0.04035 0.0134 0.134525 0.363125 0.05375 0.564925 -0.0538 0.188325 0.12105 0.672575 0.13445 0.78015Z" stroke-width="0.25"></path>
  <path fill="#000000" d="M15.764375 2.291205c-0.08075 -0.51111 0 -1.519995 0.107575 -1.68132 0.336325 -0.45735925 2.11175 -0.51111175 2.4884 0.0268775 0.1614 0.242085 0.147925 0.807015 0.12105 1.1702075 -0.026875 0.3631275 -0.12105 1.143255 -0.134525 1.39888 -0.0134 0.18835 -1.96375 0.484175 -2.394175 -0.026925 -0.1211 -0.13445 -0.188325 -0.88772 -0.188325 -0.88772Z" stroke-width="0.25"></path>
  <path fill="#000000" d="M19.718825 21.552275c0.8205 0.591875 1.45265 0.69945 1.8696 0.91465 0.41695 0.215275 0.309375 0.632225 -0.390075 0.75325 -0.564925 0.107575 -1.45265 -0.107625 -2.04445 -0.107625 -0.5918 0 -1.91 0.0673 -2.259725 -0.1748 -0.403475 -0.282425 -0.228675 -0.807075 -0.228675 -0.807075 0.10765 -0.295825 0.3766 -0.955 0.2959 -1.493 -0.0807 -0.537975 -0.188325 -0.833875 -0.390075 -1.3316 -0.201725 -0.497625 -0.34965 -1.7216 -0.1613 -1.788875 0.188325 -0.0673 0.134425 0 0.376575 0.05375 0.2421 0.05375 0.511125 0.1345 1.0357 0.1345 0.5246 0 1.102925 -0.08075 1.304725 -0.121025 0.20175 -0.04035 0.363125 -0.080775 0.29585 0.33625 -0.067225 0.41695 -0.268975 1.197075 -0.28245 1.80235 -0.0134 0.605275 -0.0134 1.304725 0.02695 1.425775 0.040275 0.12105 0.33625 0.25555 0.55145 0.403475Z" stroke-width="0.25"></path>
  <path fill="#88ce02" d="M16.840425 3.636275c-1.4795 1.277825 -4.3445 1.6275 -8.5948 3.268475 -1.0895 0.416925 -3.9948 1.66785 -4.694225 2.97255 2.353825 -1.358475 3.228125 0.511125 3.416375 2.434525 0.1748 1.802375 1.07605 2.74395 3.389525 2.690075 2.380775 -0.05375 3.1071 1.3316 3.766125 2.959175 1.277775 -6.22765 3.3223 -7.43815 4.64035 -8.5007 2.797775 -2.2732 -0.64555 -6.281475 -1.92335 -5.8241Z" stroke-width="0.25"></path>
  <path fill="#88ce02" d="M16.84045 3.63625c-3.5509 1.23745 -7.061525 1.546825 -11.190775 4.088975 -0.981875 0.605275 -3.053275 1.97715 -3.456805 4.600075C3.699275 10.657375 7.18295 8.559175 11.446775 7.227575c2.152075 -0.67255 3.725825 -1.116375 5.635775 -1.856175 -0.13445 -0.8609 -0.13445 -1.19715 -0.2421 -1.73515Z" stroke-width="0.25"></path>
  <path fill="#000000" d="M21.37335 11.0071s-0.25555 0.874325 -0.766675 1.156825c0 0 -0.3766 0.1345 -1.1298 -0.28245 -0.2152 -0.121025 -0.376575 -0.537975 -0.363175 -0.672575 0.013475 -0.322825 0.2152 -0.47075 0.2152 -0.47075s0.215275 -0.3632 0.470775 -0.349725c0.255625 0.0134 0.686025 0.05375 0.82055 -0.0673 0.120975 -0.1345 0.780075 0.2421 0.753125 0.685975Z" stroke-width="0.25"></path>
  <path fill="#000000" d="M15.8855 2.54675s-0.05375 0.68605 -0.147925 1.1164c-0.013475 0.08075 -0.41695 0.12105 -0.712925 0.24215 0.56495 1.614025 3.967925 1.60055 4.411825 0.807 -0.215225 -0.1479 -0.645625 -0.376575 -0.847375 -0.457275 -0.2018 -0.080775 -0.188325 -0.0673 -0.2018 -0.4439 -0.0134 -0.37665 -0.04035 -1.076025 -0.0673 -1.264375 -0.026875 -0.1883275 -2.111725 -0.1883275 -2.4345 0Z" stroke-width="0.25"></path>
  <path fill="#efefef" d="M16.0198 2.54675s0 0.390075 -0.04035 0.766675c-0.0134 0.17485 -0.026875 0.282425 -0.05375 0.41695 -0.013475 0.08075 0.4573 0.403475 0.5918 1.116375 0.645625 1.439175 2.138675 0.726325 2.757375 0.04035 -0.215225 -0.147975 -0.564925 -0.349725 -0.9684 -0.5111 -0.201825 -0.080775 -0.10765 -0.255575 -0.12105 -0.63215 -0.013475 -0.3766 -0.0673 -0.928125 -0.094175 -1.129875 -0.027 -0.201735 -1.7486 -0.255555 -2.07145 -0.067225Z" stroke-width="0.25"></path>
  <path fill="#000000" d="M15.88555 2.54675s-0.013475 0.24215 -0.053775 0.5246c0.1748 0.174775 0.403475 0.416925 0.578425 0.564925 0.121025 0.107625 0.416875 0.09415 0.68595 0.09415 0.2421 0 0.4573 0.026875 0.551475 -0.026875 0.215275 -0.107625 0.524575 -0.3766 0.69945 -0.5784 -0.013425 -0.242075 -0.026875 -0.47075 -0.0403 -0.5784 -0.0136 -0.1883275 -2.09845 -0.1883275 -2.421225 0Z" stroke-width="0.25"></path>
  <path fill="#000000" d="M17.10955 3.568975c-0.16145 0 -0.349775 -0.0134 -0.4977 -0.04035 -0.067275 -0.0134 -0.1345 -0.05375 -0.188325 -0.0807 -0.094175 -0.067275 -0.188325 -0.147925 -0.29585 -0.228675 -0.215275 -0.1614 -0.228675 -0.25555 -0.228675 -0.295825 0.094175 -0.84744 -0.02695 -1.56029 -0.02695 -1.56029s-0.09415 -0.3631925 0.41695 -0.45736c0.511125 -0.094165 0.8205 -0.10757 0.8205 -0.10757s0.32285 0 0.820475 0.10757c0.511125 0.0941675 0.41695 0.45736 0.41695 0.45736s-0.12105 0.71285 -0.026875 1.56029c0 0.040275 -0.0134 0.134425 -0.228675 0.295825 -0.188325 0.134525 -0.33625 0.282425 -0.484175 0.309375 -0.147975 0.02695 -0.336325 0.04035 -0.49765 0.04035Z" stroke-width="0.25"></path>
  <path fill="#000000" d="M17.109475 0.4484875c-0.8877 0 -1.062625 0.2420825 -1.318175 0.51111 -0.05375 0.067225 -0.013475 0.470765 0.08075 1.3316h0.12105s-0.080775 -0.2421525 -0.0673 -0.5245825c0.013475 -0.2824325 0.0673 -0.2689625 0.026875 -0.3362525 -0.05375 -0.08076 -0.161375 -0.215275 0.080775 -0.3497225 0.242075 -0.1345125 0.618675 0.1075725 1.076025 0.1210425 0.4573 -0.01347 0.847375 -0.255555 1.08945 -0.1210425 0.2421 0.1344475 0.134525 0.2689625 0.080775 0.3497225 -0.053825 0.080695 0.0134 0.0537525 0.026875 0.3362525 0.0134 0.28243 -0.0673 0.5245825 -0.0673 0.5245825h0.12105c0.0807 -0.860835 0.1345 -1.2374325 0.094175 -1.3047225 -0.2287 -0.295905 -0.4573 -0.5245825 -1.345025 -0.5379875Z" stroke-width="0.25"></path>
  <path fill="#000000" d="M21.373425 11.04745s-0.255575 0.8205 -0.7532 1.102925c-0.10765 -0.05375 -0.094175 -0.13445 -0.18835 -0.25555 -0.026925 -0.040275 -0.1211 -0.0673 -0.161375 -0.107575 -0.04035 -0.04035 -0.026875 -0.10765 -0.094175 -0.1614 -0.0538 -0.0538 -0.09415 -0.01345 -0.147975 -0.0538 -0.05375 -0.05375 -0.0673 -0.12105 -0.107575 -0.161325 -0.02695 -0.02695 -0.134525 -0.04035 -0.1614 -0.0673 -0.067275 -0.0673 -0.659025 -0.188325 -0.63215 -0.32285 0.05375 -0.2018 0.1614 -0.349725 0.1614 -0.349725s0.25555 -0.3766 0.51105 -0.363175c0.25555 0.01345 0.4977 0.067275 0.6322 -0.05375 0.148 -0.1346 0.98195 0.363125 0.94155 0.793525Z" stroke-width="0.25"></path>
  <path fill="#000000" d="M19.6246 5.102375s0.847375 -0.2018 1.425775 0.349725c0.5784 0.564925 0.537975 1.2643 0.363175 1.694725 0.147925 0.174875 0.41695 0.659025 0.215225 1.237425 0.8877 0.7532 0.497625 1.91 -0.295925 2.676675 0 0 -0.188325 -0.69945 -0.941525 -0.7398 0.026875 -0.26895 -0.699425 -0.484225 -0.363175 -1.183675 -0.511125 -0.121025 -0.49765 -0.47075 -0.57835 -0.9011 -0.067275 -0.4305 0.1748 -3.133975 0.1748 -3.133975Z" stroke-width="0.25"></path>
  <path fill="#efefef" d="M19.31525 5.478975s0.981875 -0.49765 1.560275 0.0673c0.57835 0.564925 0.4169 1.1836 0.2421 1.614025 0.147925 0.1748 0.49765 0.672575 0.282425 1.2643 -0.04035 0.134525 -0.33625 0.134525 -0.551525 0.48425 0.538 -0.30945 0.8743 -0.228675 0.99535 0.161325 0.188325 0.605275 -0.228675 1.3316 -0.5918 1.735125 0 -0.013475 -0.013475 -0.026925 -0.013475 -0.04035 -0.05375 0.2018 -0.12105 0.591825 -0.524525 1.022225 -0.2018 0.215225 -0.363175 0.18835 -0.591875 0.134525 -0.26895 -0.0673 -0.363125 -0.1884 -0.739725 -0.390075 -0.2152 -0.12105 -0.09415 -0.269025 -0.09415 -0.390075 0 -0.026875 0.026875 -0.067275 0.067275 -0.121025 0.026875 -0.0673 0.107575 -0.1748 0.228625 -0.295925 0 0 0.17485 -0.242075 0.430475 -0.228675 0.25555 0.013475 0.524525 -0.040275 0.5918 -0.107575 0 -0.47075 -0.537975 -0.484225 -0.3497 -1.29125 0.01345 -0.04035 0.08075 -0.107625 0.2959 -0.1345 -0.32285 -0.0673 -0.470775 -0.080775 -0.69945 -0.2959 -0.1614 -0.147925 -0.282425 -0.33625 -0.32285 -0.57835 -0.080625 -0.41695 -0.21515 -2.609375 -0.21515 -2.609375Z" stroke-width="0.25"></path>
  <path fill="#000000" d="M16.47715 4.631625c-0.0807 -0.10765 -0.49765 -0.645625 -1.29125 -0.86085 -0.228675 -0.067275 -0.3766 0.12105 -0.605225 0.25555 -0.067275 -0.040325 -0.363175 -0.17485 -0.524575 -0.08075 -0.161375 0.0941 -0.26895 0.188325 -0.430425 0.25555 -0.08075 -0.04035 -0.2959 -0.04035 -0.47075 0.026875 -0.174875 0.053825 -0.4439 0.174875 -0.69945 0.5246 -0.161375 0.5784 2.851475 0.1479 2.851475 0.1479l1.1702 -0.268875Z" stroke-width="0.25"></path>
  <path fill="#88ce02" d="M16.50435 4.631625c-0.430475 -0.148 -0.3632 -0.64565 -1.3182 -0.726325 -0.188325 -0.013475 -0.309375 0.13445 -0.443875 0.2286 0.067275 0.0673 0.1345 0.174875 0.17485 0.28245 -0.12105 -0.13445 -0.33625 -0.309375 -0.551525 -0.349725 -0.201725 -0.0403 -0.33625 0.107625 -0.55145 0.215275 0.040275 0.040275 0.0807 0.10755 0.13445 0.188325 -0.18835 -0.12105 -0.3228 -0.1614 -0.57835 -0.0673 -0.17485 0.05375 -0.5111 0.20175 -0.76665 0.56495 -0.1614 0.5784 2.717 -0.0673 2.717 -0.0673l1.18375 -0.26895Z" stroke-width="0.25"></path>
  <path fill="#000000" d="M19.032925 4.846825s0 -0.147975 -0.013475 -0.282425c0 -0.026875 -0.107575 -0.094175 -0.107575 -0.12105l-0.026875 -0.02695s0.215225 -0.121025 0.3766 -0.05375c0.1748 0.05375 0.268975 0.282425 0.268975 0.282425 0.309375 -0.10755 0.33625 0.013475 0.484225 0.174875 0.32285 -0.0673 0.363125 0.05375 0.564925 0.349725 0 0 -0.242075 -0.04035 -0.71285 0.040275 -0.45735 0.067225 -0.83395 -0.3766 -0.83395 -0.363125Z" stroke-width="0.25"></path>
  <path fill="#88ce02" d="M18.978925 4.779525s0.0807 -0.067275 0.053775 -0.08075c0.1479 -0.0807 0.3497 -0.1748 0.443875 0.08075 0.309375 -0.107625 0.349725 0.04035 0.49765 0.2018 0.3766 -0.17485 0.403475 0.0403 0.4304 0.13445 -0.121025 0 -0.295825 0.013475 -0.537975 0.04035 -0.4573 0.0673 -0.901175 -0.390075 -0.887725 -0.3766Z" stroke-width="0.25"></path>
  <path fill="#000000" d="M14.40605 4.443275s0.766675 0.268975 1.4123 0.228625c0.645625 -0.05375 1.74855 -0.107575 2.34035 0.24215 0 0 0.605275 -0.215275 1.1702 -0.0673 0.565 0.147925 1.600625 1.1164 1.291325 2.138625 -0.02695 0.067275 -0.2018 0.17485 -0.40355 0.24215 0 0 0.10765 0.4573 -0.0807 0.8339 -0.188325 0.363175 -0.605275 1.062625 -0.61875 2.031025 -0.0134 0.1614 -0.040275 0.49765 -0.0672 0.659025 -1.049175 -0.040275 -2.6632 -0.4304 -4.250375 -0.403475 0.013425 -0.174775 0.0269 -0.282425 0.04035 -0.457275h0.0403c-0.0807 -0.4439 -0.107575 -0.672575 -0.18835 -1.008825 -0.5111 -0.322775 -1.04915 -0.699375 -1.506375 -1.4123 -0.4439 -0.7129 0.820475 -3.026325 0.820475 -3.026325Z" stroke-width="0.25"></path>
  <path fill="#000000" d="M19.597825 11.70655s0.83395 2.98605 -0.147925 4.23695c0 0 0.147925 0.578325 -0.188325 1.197075 -0.053825 0.268975 -0.1211 0.511125 -0.1614 0.780075 -0.17485 1.1164 -0.470825 1.58715 -0.551525 3.37605l-0.807075 -0.0134s-0.094175 -1.29125 -0.3766 -1.977225c-0.161325 -0.39 -0.7936 -0.91465 -0.7666 -1.439175 0.026875 -0.403525 0.107575 -0.739775 0.7936 -1.27785 0.05375 -0.780075 -0.726375 -1.519925 -0.605275 -4.4252l2.811125 -0.4573Z" stroke-width="0.25"></path>
  <path fill="#efefef" d="M19.355825 11.58545c0.2152 1.37195 0.71285 3.402975 -0.18835 4.398275 0.0403 0.188325 0.067225 0.45735 0.013425 0.76665 -0.026875 0.1614 -0.0807 0.33625 -0.147925 0.524525 -0.134525 0.32285 -0.188325 0.793625 -0.228675 1.07605 -0.174875 1.116375 -0.174875 1.170275 -0.255575 2.959175l-0.807075 -0.013475s-0.09415 -1.29125 -0.3766 -1.977175c-0.161325 -0.39005 -0.497625 -0.7263 -0.5245 -1.2509 -0.026875 -0.403475 0.25555 -1.210475 0.928125 -1.1836 -0.04035 -1.6275 -0.793625 -1.304725 -0.99535 -4.69425l2.5825 -0.605275Z" stroke-width="0.25"></path>
  <path fill="#efefef" d="M14.40595 4.443275s0.295925 0.094175 0.6187 0.12105c0.32285 0.026875 0.67255 0 0.981875 -0.013475 0.645625 -0.05375 1.560275 -0.12105 2.16555 0.228675 0 0 0.33625 -0.107625 0.69945 -0.08075 0.161375 0.013475 0.32285 0.147975 0.5111 0.2018 0.591825 0.147925 1.15675 1.1298 0.901125 2.017575 -0.026875 0.067275 -0.2152 0 -0.430425 0.067275 0.040275 0.18835 0.0673 0.61875 -0.147975 1.07605 -0.228625 0.457375 -0.524525 1.049175 -0.470775 2.179025 -1.4123 -0.067275 -2.04445 -0.161375 -3.443325 -0.228675 -0.12105 -0.4977 -0.2018 -0.99535 -0.215225 -1.2509 0.18835 -0.094175 0.29585 -0.1748 0.4439 -0.33625 -0.403475 0.067275 -0.564925 0.04035 -0.807075 -0.094175 -0.2421 -0.1345 -0.6725 -0.564925 -0.887725 -0.84735 -0.026875 -0.02695 -0.174775 0.416875 -0.51105 0.4304 -0.1211 -0.17485 0.390025 -0.67255 0.29585 -0.860825 -0.336175 -0.68605 0.296025 -2.60945 0.296025 -2.60945Z" stroke-width="0.25"></path>
  <path fill="#000000" d="M19.4633 10.46905s0.026875 0.48425 0.026875 0.605275c0 0.134525 0.10765 0.538 0.12105 0.726325 -0.147925 0.25555 -0.79355 0.83395 -1.96375 1.049175 -1.15675 0.242075 -2.690075 -1.5737 -2.690075 -1.5737 0.04035 -0.17485 0.17485 -0.686025 0.269025 -0.955 0.013475 -0.026875 0.04035 -0.09415 0.04035 -0.121025 0.1211 -0.174875 4.196525 0.26895 4.196525 0.26895Z" stroke-width="0.25"></path>
  <path fill="#efefef" d="M19.167325 10.509475c0 0.33625 0.05375 0.5784 0.094175 0.7936 0.067225 0.390075 0.1748 0.645625 0.1748 0.901175 0 0.780075 -1.022225 0.645575 -1.883125 0.672525 -1.15675 0.24215 -2.138625 -1.5737 -2.138625 -1.5737 0.0807 -0.309375 0.134525 -0.659025 0.25555 -0.955 0.0134 -0.161375 0.04035 -0.363125 0.05375 -0.4573 1.640975 0 2.797725 0.094175 3.470275 0.161325 0.02695 0.148 0.000075 0.40355 -0.0268 0.457375Z" stroke-width="0.25"></path>
  <path fill="#000000" d="M17.876125 12.24455s-0.71285 -1.587175 -2.851525 -1.116325c-0.51105 1.439175 -1.197075 3.0936 -0.7532 4.8825 -0.443875 0.605275 -0.955 0.9416 -0.955 2.057925 0 1.116375 0.053825 1.304725 0.053825 1.304725l1.573675 0.08075s0.511125 -0.659025 0.71285 -1.37195c0.053825 -0.2018 0.10765 -0.564925 0.0673 -0.981875 0.05375 -0.0807 0.282425 -0.26895 0.309375 -0.63215 0 0 0.766675 -0.403475 1.21055 -1.38535 0.417025 -0.8879 0.309375 -1.654575 0.63215 -2.83825Z" stroke-width="0.25"></path>
  <path fill="#efefef" d="M17.876225 12.24455c-0.0403 -0.147925 -0.57835 -1.600575 -2.56905 -1.170225 -1.170125 3.120575 -0.739725 4.411825 -0.564925 4.976675 -0.7936 1.00875 -1.156725 1.223975 -0.995275 3.268475h1.04915c0.484175 -0.76665 0.591825 -1.04915 0.6187 -2.0579 0 -0.04035 -0.147925 0.080675 -0.25555 0.2152 0.08075 -0.41695 0.309375 -0.49765 0.484225 -0.7532 0.0807 -0.107625 0.147925 -0.269025 0.147925 -0.484225 0.941525 -0.632175 1.29125 -1.425775 1.492975 -2.24625 0.161475 -0.564875 0.349725 -1.493 0.591825 -1.74855Z" stroke-width="0.25"></path>
  <path fill="#000000" d="M14.5539 10.07905s0.3632 0.0134 0.686025 0.12105c0.309375 0.107575 0.309375 0.174775 0.430425 0.309375 0.12105 0.134575 0.41695 0.33625 0.3632 0.537975 -0.02695 0.10765 -0.094175 0.134525 -0.188325 0.228675 -0.04035 0.04035 -0.336325 0.363125 -0.40355 0.403475 -0.04035 0.026875 -0.094175 0.0673 -0.134525 0.094175 -0.040275 0.026875 -0.161325 0.107625 -0.201725 0.134525 -0.134525 0.067275 -0.228675 0.107625 -0.3766 0.09415 0 0 -0.33625 -0.013475 -0.551525 -0.242075 0 0 -0.026875 -0.10765 0.02695 -0.1614 0 0 -0.2825 -0.24215 -0.3632 -0.403525 -0.080775 -0.161325 -0.080775 -0.390025 -0.026875 -0.51105 0.026875 -0.121175 0.5514 -0.457425 0.739725 -0.60535Z" stroke-width="0.25"></path>
  <path fill="#000000" d="m14.89025 23.16635 -0.04035 0.336325s-0.121025 0.147925 -1.022225 0.134525c-0.91465 -0.013475 -1.156725 -0.295925 -1.237425 -0.4439l-0.05375 -0.349725s0.17485 -0.25555 0.2152 -0.25555c0.2959 0.026875 1.304725 0.430425 2.004175 0.537975 0.0671 0 0.0805 0.026875 0.134375 0.04035Z" stroke-width="0.25"></path>
  <path fill="#000000" d="M16.8405 22.480375c0 0.147925 -0.013475 0.147925 -0.013475 0.295925 0.1614 0.121025 0.565 0.188325 1.3316 0.174775 1.1164 -0.026875 2.152075 0.336325 3.4164 0.12105l0.013475 -0.242075 -0.12105 -0.013425 -4.479025 -0.363175 -0.147925 0.026925Z" stroke-width="0.25"></path>
  <path fill="#000000" d="m17.822275 22.95115 0.33625 0c0.726375 -0.026875 1.41235 0.134525 2.152075 0.17485 0.390075 -0.01345 0.874325 -0.107625 0.833975 -0.39005l-3.81995 -0.32285c-0.228675 0.25555 -0.053875 0.47075 0.49765 0.53805Z" stroke-width="0.25"></path>
  <path fill="#000000" d="M13.4375 17.2885c0.12105 0.0807 0.941525 0.564925 2.273125 0.49765 -0.026925 0.25555 -0.013475 0.75325 -0.605275 1.6275 -0.2959 0.430425 -0.551525 1.183675 -0.605275 2.138675 0.013475 0.2152 0.134525 0.403475 -0.026875 0.685975 0.05375 0.1748 0.26895 0.524525 0.3766 0.739725 0.107575 0.215275 0.1614 0.45735 -0.551525 0.470825 -0.726325 0.0134 -1.896525 -0.067275 -1.735075 -0.63215 0.08075 -0.2959 0.309375 -0.605275 0.336325 -0.726375 0.026875 -0.12105 0.026875 -0.484175 0.255475 -0.726325 0.2018 -0.6725 0.134525 -1.318125 0.09425 -1.9234 -0.0673 -0.632225 -0.080775 -1.640975 0.18825 -2.1521Z" stroke-width="0.25"></path>
  <path fill="#000000" d="M14.68825 6.32635c0.955 -1.27785 0.1479 -2.300025 -1.38535 -1.9907 -0.61875 0.121025 -1.23745 0.551525 -1.27785 1.3316 -0.20175 0.026875 -0.659025 0.05375 -0.887725 0.8877 -0.174775 0.645625 -0.26895 0.766675 -0.5784 1.08945 -0.201725 0.228675 0.013475 0.69945 0.1614 1.03575 0.4977 1.15675 2.03105 1.264325 3.066725 2.138625 0.349725 -0.094175 0.71285 -0.484175 0.8205 -0.739725 -0.8743 -1.03575 -0.68605 -1.439225 -1.035775 -1.977225 0.376675 -0.134575 1.2375 -0.6591 1.116475 -1.775475Z" stroke-width="0.25"></path>
  <path fill="#efefef" d="M14.50015 6.24565c0.05375 -0.080775 0.147925 -0.25555 0.18835 -0.32285 0.01345 -0.013475 0.161375 0.242075 0.17485 0.228675 0.363125 -0.591875 0.4573 -1.4527 0.040275 -1.5334 -0.09415 -0.013475 -0.26895 -0.05375 -0.41695 -0.107625 -0.26895 -0.094175 -0.511025 -0.094175 -0.941525 -0.013425 -0.5918 0.107575 -1.1836 0.538 -1.1836 1.15675 0 0.04035 0.416875 0.161375 0.537975 0.6591 -0.2018 -0.2825 -0.551525 -0.591875 -0.968475 -0.32285 -0.443875 0.282425 -0.2152 0.92805 -0.807 1.60055 -0.2018 0.228675 -0.174875 0.497725 0.040275 1.0357 0.349725 0.847425 2.004175 1.304725 2.90535 2.11175 0.2152 -0.094175 0.363125 -0.309375 0.470775 -0.470775 -0.6053 -0.63215 -0.84745 -1.224025 -1.022225 -1.65445 -0.215225 -0.497625 -0.457375 -0.780075 -0.928125 -1.1568 0.24215 0.094175 0.430475 0.188325 0.537975 0.269025 0.12105 0.0807 0.2959 0.094175 0.457375 0.04035 0.57845 -0.2016 0.887825 -1.008675 0.9147 -1.519725Z" stroke-width="0.25"></path>
  <path fill="#000000" d="M20.351025 6.46085c-0.04035 0.511125 -0.41695 0.25555 -0.618675 0.1614 -0.40355 -0.174875 -0.8071 -0.2959 -1.27785 -0.2959 -0.470775 0 -1.07605 0.04035 -1.600575 0.17485 -0.726325 0.20175 -0.941575 0.188325 -1.264375 0.026875 -0.322775 -0.17485 -0.887625 -0.605275 -0.887625 -0.605275s-0.013475 0.134525 0.121025 0.309375c0.1748 0.2152 0.564925 0.484225 1.08945 0.659025 0.25555 0.080775 0.45735 0.026875 0.68605 -0.026875 1.197075 -0.2959 2.461375 -0.349725 3.52395 0.2959 0.053825 0.026875 0.24215 -0.0538 0.32285 -0.17485 0.1075 -0.1748 -0.094225 -0.524525 -0.094225 -0.524525Z" stroke-width="0.25"></path>
  <path fill="#001423" d="M14.231075 11.58545c0.107575 0.067275 0.2421 0.107625 0.39 0.228675 0 0 -0.121025 0 -0.1748 -0.05375 -0.067275 -0.04035 -0.2018 -0.1614 -0.2152 -0.174925Z" stroke-width="0.25"></path>
  <path fill="#efefef" d="M18.11835 0.919255c-0.04035 -0.1210425 -0.336325 -0.3363175 -1.022225 -0.3363175 -0.7398 0 -0.955 0.22868 -0.9684 0.3497225 0 0.0403475 -0.053825 0.47083 -0.0673 0.645625 0 0 0 0.2152075 0.0134 0.5379875 0.013475 0.21521 0.0673 0.3362525 0.094175 0.6187525 0.026875 0.295825 0.107625 0.484175 0.25555 0.726325 0.0673 0.040275 0.12105 0.0807 0.188325 0.09415 0.269025 0.05375 0.7398 0.067225 0.99535 0 0.147925 -0.04035 0.33625 -0.2959 0.3766 -0.524575 0.05375 -0.282425 0.107575 -0.484225 0.12105 -0.65903 0.026875 -0.174795 0.04035 -0.56493 0.05375 -0.6725675 0.040425 -0.2958375 -0.026875 -0.7531975 -0.040275 -0.7800725Z" stroke-width="0.25"></path>
  <path fill="#000000" d="M16.70585 17.54405s0.7129 0.309375 2.474925 0.04035c0 0 -0.49765 2.501825 -0.268975 3.75265 0 0 0.228625 0.32285 1.923425 0.941525 0 0 0.7532 0.18835 0.7263 0.565 0 0 0.0269 0.0807 -0.8877 0.05375 -0.914575 -0.026925 -1.775475 -0.188325 -2.380775 -0.188325 -0.605275 0 -1.2509 0.026875 -1.358475 -0.147925 -0.121025 -0.161375 0.0269 -0.5784 0.20175 -0.82055 0.1884 -0.255475 0.1345 -0.443875 0.1211 -0.9011 -0.040475 -1.1971 -0.955125 -2.434525 -0.551575 -3.295375Z" stroke-width="0.25"></path>
  <path fill="#88ce02" d="M16.557825 17.77275c-0.09415 0.1345 0.0134 0.64555 0.147925 1.14325 0.134525 0.49765 0.430475 0.793625 0.4977 1.614025 0.067225 0.807025 0.0807 0.914675 -0.147975 1.38535 -0.228675 0.4707 -0.2959 0.9012 0.49765 0.914675 0.793525 0.01345 1.224025 -0.013475 2.031025 0.107625 0.807075 0.12105 1.089525 0.1614 1.5334 0.094175 0.4439 -0.067225 0.538 -0.215275 0.349725 -0.349725 -0.188325 -0.134525 -0.968475 -0.282425 -1.304725 -0.551525 -0.32285 -0.2421 -1.237425 -0.645625 -1.250825 -0.7532 -0.04035 -0.3632 -0.053825 -1.681325 0.0134 -2.11175 0.0673 -0.430475 0.1614 -1.04915 0.188325 -1.21055 0.02695 -0.161375 0.1614 -0.32285 -0.067275 -0.269025 -0.228625 0.05375 -1.08945 0.174875 -1.735075 0.134525 -0.645625 -0.0403 -0.71285 -0.188275 -0.753275 -0.14785Z" stroke-width="0.25"></path>
  <path fill="#000000" d="M17.01545 21.928925c0.2286 0.107575 0.564925 0.188325 0.820475 0.188325 0 0 -0.094225 0.4439 0.05375 0.71285 0.147925 0.269025 -1.076025 0.10765 -1.076025 0.10765l-0.05375 -0.955 0.25555 -0.053825Z" opacity=".3" stroke-width="0.25"></path>
  <path fill="#000000" d="M20.579775 23.08565c0.215225 -0.067275 0.3632 -0.30935 0.18835 -0.537975 -0.18835 -0.228675 -0.349725 -0.269025 -0.10765 -0.282425 0.24215 -0.013475 1.129875 0.5245 1.129875 0.5245l-0.457375 0.41695 -0.7532 -0.12105Z" opacity=".3" stroke-width="0.25"></path>
  <path fill="#000000" d="M16.5176 18.29725c0.309375 0.10765 0.78015 0.134525 1.183675 0.12105 0.403475 -0.0134 1.00875 -0.0673 1.3989 -0.20175 0.39 -0.1345 0.2286 0.147925 0.2286 0.147925l-0.2152 0.2018s-0.511125 0.20175 -1.345 0.18835c-0.981875 -0.013475 -1.27785 -0.12105 -1.27785 -0.12105l0.026875 -0.336325Z" opacity=".3" stroke-width="0.25"></path>
  <path fill="#000000" d="M16.544675 18.969825c0.30945 0.107625 0.78015 0.1345 1.183675 0.12105 0.403475 -0.013425 0.941525 -0.013425 1.3316 -0.1614 0.1614 -0.05375 0.0673 0.17485 0.0673 0.17485l-0.0673 0.12105s-0.524575 0.188325 -1.345075 0.1748c-0.981875 -0.0134 -1.156725 -0.094175 -1.156725 -0.094175l-0.013475 -0.336175Z" opacity=".3" stroke-width="0.25"></path>
  <path fill="#000000" d="M15.65685 9.541075c0 0.09415 1.049175 0.618675 1.627525 0.7263 0.5784 0.107575 1.78895 0 1.9772 -0.04035l-0.026925 0.18835s-1.439175 0.2152 -2.5421 -0.0807c-1.102975 -0.2959 -0.981875 -0.3632 -0.981875 -0.3632l-0.053825 -0.4304Z" stroke-width="0.25"></path>
  <path fill="#efefef" d="M13.41065 21.014275c0.161375 0.080775 0.739775 0.228675 1.116375 0.147975 0.05375 -0.01345 0 -0.9281 0.148 -1.34505 0.2152 -0.5784 0.564925 -1.049175 0.72625 -2.071325 -0.564925 -0.053825 -1.2105 -0.2018 -1.5468 -0.30945 -0.43035 1.3182 -0.282375 2.448 -0.443825 3.57785Z" stroke-width="0.25"></path>
  <path fill="#efefef" d="M14.3118 21.8617c0.094175 0.026875 0.1614 0.13445 0.18835 0.0673 0.05375 -0.1211 -0.094175 -0.349725 -0.10765 -0.511125l0 -0.01345c-0.121025 -0.107575 -0.941525 -0.12105 -0.8877 -0.0673 -0.094175 0.17485 -0.2421 0.147975 -0.29585 0.4977 -0.026875 0.1748 0.18835 0.026875 0.39 0.0134 -0.363125 0.2421 -0.78005 0.55155 -0.84735 0.8205 -0.0807 0.3766 0.053825 0.484225 0.45735 0.68605 0.349725 0.080675 0.766675 0.09415 1.08945 0.080675 0.3632 -0.067275 0.4305 -0.242075 0.32285 -0.484225 -0.161525 -0.3632 -0.2691 -0.83395 -0.30945 -1.089525Z" stroke-width="0.25"></path>
  <path fill="#000000" d="M14.459675 4.389475c0.443875 0.25555 1.062625 0.188325 1.29125 0.17485 0.0538 0 0.59185 -0.094175 0.61875 -0.08075 0.05375 0.01345 0.05375 0.0538 0.05375 0.0538s-0.20175 0.107575 -0.65905 0.13445c-0.4304 0.026875 -0.941525 0 -1.22395 -0.13445 -0.336325 -0.1479 -0.08075 -0.1479 -0.08075 -0.1479Z" stroke-width="0.25"></path>
  <path fill="#000000" d="M19.032925 4.645025c0.0807 0.05375 0.605275 0.25555 0.833975 0.497625 0.201725 0.215275 0.09415 0.2018 0.05375 0.148 -0.05375 -0.0673 -0.470775 -0.349725 -0.632175 -0.41695 -0.161375 -0.067225 -0.363175 -0.188325 -0.363175 -0.2152 0 -0.0269 0.107625 -0.013475 0.107625 -0.013475Z" stroke-width="0.25"></path>
  <path fill="#efefef" d="M14.392525 10.226975c0.390075 -0.026875 0.7936 0.067275 1.049175 0.33625 0.1345 0.1345 0.3497 0.282425 0.322825 0.41695 0 0.040325 -0.08075 0.147975 -0.1479 0.228675 -0.04035 0.05375 -0.1614 0.1748 -0.201825 0.2152 -0.05375 0.04035 -0.242075 0.188325 -0.282425 0.2152 -0.04035 0.02695 -0.09415 0.09425 -0.1345 0.10765 -0.13445 0.0673 -0.28245 0.013475 -0.41695 -0.05375 -0.13445 -0.0673 0.026925 -0.080775 -0.12105 -0.188325 -0.363125 -0.255575 -0.564925 -0.4305 -0.41695 -0.928125 0.0134 -0.094175 0.161325 -0.201825 0.3496 -0.349725Z" stroke-width="0.25"></path>
  <path fill="#000000" d="M10.962625 7.146825c-1.210575 0.48425 -4.290775 2.01765 -5.165025 2.488425 0.726325 0.457275 1.062575 1.5602 1.170225 2.6766 0.0134 0.107625 0.026875 0.2018 0.04035 0.309375 0.0134 0.09415 0.026875 0.161375 0.040275 0.2018 0 0.013475 0 0.04035 0.013475 0.05375 0.7936 -2.1655 3.6316 -4.4521 3.739225 -4.62695 0.05375 -0.0807 -0.067275 -0.430425 0.12105 -0.7666 0.24215 -0.43055 0.712975 -0.6189 0.040425 -0.3364Z" opacity=".4" stroke-width="0.25"></path>
  <path fill="#000000" d="M13.8411 17.301975c0.6187 -1.237425 0.63215 -2.4211 0.6187 -3.806525 0 -0.5784 0.416925 -1.398875 0.2018 -1.1702 -0.8071 0.9011 -2.838075 2.595975 -4.304175 2.690075 2.057925 -0.067225 2.864925 0.968475 3.483675 2.28665Z" opacity=".4" stroke-width="0.25"></path>
  <path fill="#000000" d="M4.6139 10.77845c0.76665 -0.551475 4.734575 -2.66315 5.689575 -2.9591 0.95495 -0.309375 0.659025 -0.672575 0.659025 -0.672575s-3.87375 1.66785 -6.187225 3.107075" stroke-width="0.25"></path>
  <path fill="#000000" d="M15.9124 6.891275c-0.309375 -0.12105 -0.551475 0.24215 -0.470775 0.591875 0.080775 0.349725 0.807075 0.739725 0.766675 2.017575 -0.026875 1.049175 -0.25555 1.479525 -0.25555 1.479525l-0.511125 -0.645575s-0.0807 -1.4527 -0.25555 -1.6679c-0.1748 -0.215225 -0.726325 -0.605275 -0.941525 -0.807025 -0.215225 -0.2018 0.242075 -0.470775 0.2152 -0.847425 -0.026875 -0.363125 0.228675 -1.08945 0.228675 -1.08945l1.223975 0.9684Z" opacity=".4" stroke-width="0.25"></path>
  <path fill="#000000" d="M17.78195 12.62115c-0.026875 1.00875 0.201825 2.5018 0.295925 3.214725 0.09415 0.71285 0.2152 0.766675 0 1.0895 -0.215225 0.309375 -0.49765 0.8205 -0.49765 0.8205l-0.928125 -0.080775s0.7398 -0.941525 0.780075 -1.116375c0.04035 -0.1748 -0.3766 -1.5064 -0.3766 -1.5064l0.726375 -2.421175Z" opacity=".4" stroke-width="0.25"></path>
  <path fill="#000000" d="M15.993175 3.20585c0.188325 0.4169 0.416925 0.605225 0.780075 0.726325 0.2152 0.0807 1.06255 0.18835 1.398875 -0.188325 0.147925 -0.174875 0.05375 -0.645625 0.05375 -0.645625l-0.766675 0.618675 -1.035675 -0.18825 -0.12105 -0.309375 -0.3093 -0.013425Z" opacity=".4" stroke-width="0.25"></path>
  <path fill="#88ce02" d="M16.07375 4.133925c0.349725 0.228675 1.224025 0.443875 1.466125 0.484225 0.242075 0.05375 0.63215 -0.25555 0.820475 -0.33625 0.2018 -0.094175 0.551525 -0.147975 0.955 0.2152 0.04035 0.04035 -0.09415 0.215225 -0.09415 0.215225 -0.013475 -0.013475 -0.094175 -0.013475 -0.201825 -0.0673 -0.10755 -0.05375 -0.201725 -0.094175 -0.363125 -0.0807 -0.67255 0.0807 -0.780125 0.309375 -1.371925 0.1748 -0.591825 -0.134575 -0.7398 -0.242075 -1.31815 -0.2152" stroke-width="0.25"></path>
  <path stroke="#000000" stroke-linejoin="round" stroke-width="0.3965" d="M16.07375 4.133925c0.349725 0.228675 1.224025 0.443875 1.466125 0.484225 0.242075 0.05375 0.63215 -0.25555 0.820475 -0.33625 0.2018 -0.094175 0.551525 -0.147975 0.955 0.2152 0.04035 0.04035 -0.09415 0.215225 -0.09415 0.215225 -0.013475 -0.013475 -0.094175 -0.013475 -0.201825 -0.0673 -0.10755 -0.05375 -0.201725 -0.094175 -0.363125 -0.0807 -0.67255 0.0807 -0.780125 0.309375 -1.371925 0.1748 -0.591825 -0.134575 -0.7398 -0.242075 -1.31815 -0.2152"></path>
  <path fill="#88ce02" d="M15.95265 4.174275c0.443875 0.188325 1.304725 0.39005 1.5468 0.443875 0.2421 0.053825 0.63215 -0.188325 0.8205 -0.309375 0.3363 -0.2152 0.76665 -0.04035 0.968475 0.188325 0.134425 0.147925 0.188325 0.2421 0.188325 0.28245 0 0.05375 -0.1614 0 -0.1614 0 -0.09415 -0.04035 -0.2018 -0.05375 -0.282425 -0.10765 -0.10765 -0.05375 -0.215275 -0.13445 -0.3766 -0.12105 -0.672575 0.080775 -0.807075 0.309375 -1.385425 0.174875 -0.578325 -0.134525 -0.726325 -0.25555 -1.345 -0.215275" stroke-width="0.25"></path>
  <path fill="#000000" d="M13.867875 16.737c-0.026875 -0.026875 0.026875 -0.053775 0 -0.053775 -0.1748 0 -0.41695 -0.1345 -0.551525 -0.322825 -0.57835 -0.8339 -1.425775 -1.38535 -2.9591 -1.345025 -2.300075 0.053775 -3.214725 -0.8877 -3.389525 -2.69005 -0.094175 -0.9819 -0.3632 -1.9369 -0.91465 -2.47495l-0.32285 0.2018c0.618675 0.538 0.820475 1.4123 0.955 2.6094 0.2152 1.80235 1.66785 2.6363 3.36265 2.663175 1.762 0.0269 2.39415 0.390075 3.0532 1.27785 0.2152 0.28245 0.45735 0.3766 0.645625 0.41695l0.121175 -0.28255Z" stroke-width="0.25"></path>
  <path fill="#000000" d="M20.10905 8.088375c0.04035 0.201725 0.147925 0.5918 0.363125 0.78005 0.094225 0.094175 0.10765 0.12105 0.02695 0.12105 -0.080775 0 -0.672575 -0.026875 -0.672575 -0.026875l-0.1614 -0.282425 0.4439 -0.5918Z" opacity=".4" stroke-width="0.25"></path>
</svg>