<svg xmlns="http://www.w3.org/2000/svg"  viewBox="0 0 48 48" width="48px" height="48px" baseProfile="basic"><polygon fill="#fff" points="7,22 23,7 26,7 38,21 35,24 10,24"/><path fill="#424242" d="M31,31c-0.083,0-0.165-0.005-0.248-0.016l-16-2c-0.194-0.024-0.385-0.077-0.564-0.157l-9-4	c-0.602-0.268-1.033-0.814-1.154-1.462c-0.12-0.648,0.087-1.313,0.553-1.779l15.82-15.821c0.963-0.963,2.221-1.487,3.603-1.464	c1.36,0.018,2.626,0.572,3.563,1.56l15.881,16.763c0.444,0.469,0.635,1.125,0.511,1.759s-0.547,1.17-1.136,1.437l-11,5	C31.566,30.939,31.284,31,31,31z M15.542,25.052l15.146,1.894l7.932-3.605L24.668,8.613c-0.252-0.267-0.555-0.31-0.713-0.312	c-0.176,0.012-0.462,0.034-0.721,0.293L9.474,22.355L15.542,25.052z"/><polygon fill="#424242" points="31,29 42,24 36.321,18.006 32,20 30,18 26,20 22,16 18,20 9,20 6,23 15,27"/><path fill="#424242" d="M10,22c0,0,8.108,4.196,1,8c-1.971,1.055-4,2,6,5c0,0,2,1,1,2c-0.933,0.933-3.605,2.735,1.717,3.785	c0.644,0.127,1.11,0.677,1.124,1.334C20.858,42.971,21.243,44,23,44c0,0,5,0,7-2c0.5-0.5,0-1-2-2s6-3,7-4c2.55-2.55-3-4-3-5s1-3,3-4	S10,22,10,22z"/><path fill="#424242" d="M16,37c0-1-5-2-6,1c-0.285,0.855,0,3,3,2C14.006,39.665,16,38,16,37z"/><path fill="#424242" d="M38,35c0,0,0-2,3-2s3,2,3,2s0,1-3,1S38,35,38,35z"/><path fill="#424242" d="M37,38c0,0-1,3,1,3s1.395-1.605,1-2C38,38,37,38,37,38z"/><path fill="#fff" d="M17,26c-2.236,0,6.5,7,9.5,4C28.571,27.929,21,26,17,26z"/></svg>