<svg xmlns="http://www.w3.org/2000/svg" fill="none" viewBox="0 0 96 96" id="Insomnia--Streamline-Svg-Logos" height="24" width="24">
  <desc>
    Insomnia Streamline Icon: https://streamlinehq.com
  </desc>
  <path fill="#ffffff" d="M48.0002 92.61c24.6377 0 44.6103-19.9727 44.6103-44.6101 0-24.6375-19.9726-44.61013-44.6103-44.61013-24.6374 0-44.61006 19.97263-44.61006 44.61013 0 24.6374 19.97266 44.6101 44.61006 44.6101Z"></path>
  <path fill="#4000bf" d="M48 1C22.0426 1 1 22.0426 1 48c0 25.9575 21.0426 47 47 47 25.9575 0 47-21.0425 47-47C95 22.0426 73.9575 1 48 1Zm0 4.77967C71.3176 5.77967 90.2204 24.6824 90.2204 48S71.3176 90.2204 48 90.2204 5.77967 71.3176 5.77967 48 24.6824 5.77967 48 5.77967Z"></path>
  <path fill="url(#a)" d="M48.5303 14.5424c18.4784 0 33.4578 14.9795 33.4578 33.4576 0 18.4781-14.9794 33.4576-33.4578 33.4576-18.4781 0-33.4575-14.9795-33.4575-33.4576 0-4.5158.8947-8.8227 2.5165-12.7534 2.368 3.2248 6.1869 5.3183 10.4948 5.3183 7.1861 0 13.0111-5.8253 13.0111-13.0112 0-4.3078-2.0933-8.1267-5.3183-10.4947 3.9306-1.6219 8.2376-2.5166 12.7534-2.5166Z"></path>
  <defs>
    <linearGradient id="a" x1="3360.83" x2="3360.83" y1="6706.06" y2="14.542" gradientUnits="userSpaceOnUse">
      <stop stop-color="#7400e1"></stop>
      <stop offset="1" stop-color="#4000bf"></stop>
    </linearGradient>
  </defs>
</svg>