<?xml version="1.0" encoding="UTF-8" standalone="no"?>
<!-- Created with Inkscape (http://www.inkscape.org/) -->

<svg
   width="500"
   height="500"
   viewBox="0 0 132.29166 132.29167"
   version="1.1"
   id="svg1"
   xml:space="preserve"
   inkscape:version="1.4.3 (0d15f75042, 2025-12-25)"
   sodipodi:docname="logo.svg"
   inkscape:export-filename="../logo2.png"
   inkscape:export-xdpi="96"
   inkscape:export-ydpi="96"
   xmlns:inkscape="http://www.inkscape.org/namespaces/inkscape"
   xmlns:sodipodi="http://sodipodi.sourceforge.net/DTD/sodipodi-0.dtd"
   xmlns="http://www.w3.org/2000/svg"
   xmlns:svg="http://www.w3.org/2000/svg"
   xmlns:rdf="http://www.w3.org/1999/02/22-rdf-syntax-ns#"
   xmlns:cc="http://creativecommons.org/ns#"
   xmlns:dc="http://purl.org/dc/elements/1.1/"><defs
     id="defs1" /><sodipodi:namedview
     id="base"
     pagecolor="#ffffff"
     bordercolor="#000000"
     borderopacity="0.3"
     inkscape:pageopacity="0.0"
     inkscape:pageshadow="2"
     inkscape:zoom="1.4142136"
     inkscape:cx="170.05918"
     inkscape:cy="237.94143"
     inkscape:document-units="mm"
     inkscape:showpageshadow="2"
     inkscape:pagecheckerboard="0"
     inkscape:deskcolor="#d1d1d1"
     showgrid="false"
     showguides="true"
     inkscape:window-width="2560"
     inkscape:window-height="1376"
     inkscape:window-x="0"
     inkscape:window-y="0"
     inkscape:window-maximized="1"
     inkscape:current-layer="svg1"><inkscape:grid
       id="grid1"
       units="px"
       originx="250"
       originy="250"
       spacingx="1.0583333"
       spacingy="0.99999984"
       empcolor="#0099e5"
       empopacity="0.30196078"
       color="#0099e5"
       opacity="0.14901961"
       empspacing="5"
       enabled="true"
       visible="false" /></sodipodi:namedview><metadata
     id="metadata1"><rdf:RDF><cc:Work
         rdf:about=""><dc:format>image/svg+xml</dc:format><dc:type
           rdf:resource="http://purl.org/dc/dcmitype/StillImage" /></cc:Work></rdf:RDF></metadata><g
     id="g546"
     inkscape:label="Logo transparent"
     style="display:none"><g
       id="g573"
       transform="matrix(3.5485009,0,0,3.5485009,-155.48156,-163.39791)"
       inkscape:label="Logo foncé"
       style="display:inline"><path
         id="path546"
         style="display:inline;opacity:1;fill:#151a32;fill-opacity:1;stroke:none;stroke-width:0.323001;stroke-linecap:round;stroke-miterlimit:37.9;stroke-dasharray:none;stroke-opacity:1;paint-order:fill markers stroke"
         inkscape:label="octo ext"
         d="M 83.916851,37.5402 58.104015,34.141988 37.448518,49.991527 34.050306,75.804363 49.899845,96.459861 75.712681,99.858073 96.368178,84.008534 99.76639,58.195698 Z M 82.298657,40.343083 96.640175,59.033455 93.565296,82.390339 74.874923,96.731857 51.518039,93.656978 37.176522,74.966606 40.2514,51.609722 58.941773,37.268204 Z"
         transform="matrix(0.5850097,-0.0770775,0.0770775,0.5850097,18.150399,30.648987)" /><g
         id="g558"
         inkscape:label="left"
         transform="translate(5.2916717,-7.425127)"
         style="display:inline"><g
           id="g551"
           inkscape:label="new eye"
           style="display:inline"
           transform="rotate(5.6309991,53.705484,76.819172)"><path
             style="display:inline;opacity:1;fill:#000000;fill-opacity:1;stroke:none;stroke-width:0.137;stroke-dasharray:none;stroke-opacity:1"
             d="m 55.266679,78.000028 v -4.729911 c 0,0 -7.340166,-5.099124 -15.875,-5.599504 0,0 14.364315,4.700388 14.816667,6.329417 0,0 0.639723,3.511646 1.058333,3.999998 z"
             id="path547" /><path
             id="path548"
             d="m 217.54133,518.24386 c 0,2.11067 -1.79067,3.82267 -4,3.82267 -2.20933,0 -4,-1.712 -4,-3.82267 0,-2.11067 1.79067,-3.82267 4,-3.82267 2.20933,0 4,1.712 4,3.82267 z"
             style="display:inline;opacity:1;fill:#ffffff;fill-opacity:1;stroke:#ffffff;stroke-width:1.33333;stroke-linecap:butt;stroke-linejoin:miter;stroke-miterlimit:10;stroke-dasharray:none;stroke-opacity:1"
             transform="matrix(0.10509099,0,0,0.10509099,25.837441,18.537269)" /><path
             id="path549"
             d="m 52.816217,62.98961 5.089329,2.49161 c 0,0 -5.813866,4.51881 -5.089329,-2.49161"
             style="display:inline;opacity:1;fill:#050505;fill-opacity:1;fill-rule:nonzero;stroke:#000000;stroke-width:0.111113;stroke-linecap:butt;stroke-linejoin:miter;stroke-miterlimit:10;stroke-dasharray:none;stroke-opacity:1"
             sodipodi:nodetypes="ccc"
             transform="translate(-5.29167,7.2982182)" /><path
             id="path550"
             d="m 48.699075,71.896521 c 0,0.221813 -0.188184,0.401729 -0.420364,0.401729 -0.232181,0 -0.420364,-0.179916 -0.420364,-0.401729 0,-0.221812 0.188183,-0.401728 0.420364,-0.401728 0.23218,0 0.420364,0.179916 0.420364,0.401728"
             style="display:inline;opacity:1;fill:#ffffff;fill-opacity:1;fill-rule:nonzero;stroke:#ffffff;stroke-width:0.140121;stroke-opacity:1" /><path
             style="display:inline;opacity:1;fill:#000000;stroke-width:4.01958;stroke-linecap:round;stroke-miterlimit:37.9;paint-order:fill markers stroke"
             d="m 526.13772,432.04116 10.10533,8.1959 -1.46712,27.12143 18.80896,16.41696 28.21103,-1.17855 -25.57347,-3.36834 -12.72412,-13.33175 0.81141,-23.52331 2.68802,-2.70998 z"
             id="path551"
             transform="matrix(0.15100138,-0.0094295,0.00989586,0.15846964,-40.982964,5.3073386)"
             sodipodi:nodetypes="cccccccccc" /></g><g
           id="g554"
           inkscape:label="new ear"
           transform="translate(2.4168874,6.4251269)"><path
             style="display:inline;opacity:1;fill:#000000;fill-opacity:1;stroke:none;stroke-width:0.623001;stroke-linecap:round;stroke-linejoin:miter;stroke-miterlimit:37.9;stroke-dasharray:none;stroke-opacity:1"
             d="m 53.150008,67.927996 c 0,0 -1.753249,-2.68119 -3.405826,-4.23013 -0.981044,-1.226305 -8.747597,-4.032351 -8.531472,-7.272704 0,0 -0.423593,2.62117 0.408533,4.273038 -0.01191,0.08302 -0.862525,-0.611807 -1.163276,-1.66521 0,0 0.584775,3.176528 2.078518,4.179784 0,0 11.366188,6.235442 12.73019,8.212385 0,0 -5.281084,-6.284615 -8.466665,-7.999999 0,0 4.671428,2.134927 6.349998,4.502836 z"
             id="path552"
             transform="translate(-2.4168874,-6.4251269)"
             sodipodi:nodetypes="ccccccccc" /><path
             style="opacity:1;fill:#ffffff;fill-opacity:1;stroke-width:0.494199;stroke-linecap:round;stroke-miterlimit:37.9;paint-order:fill markers stroke"
             d="m 47.046955,51.436231 c 0,0 2.139108,1.999485 3.986391,2.882646 0,0 3.452997,1.355434 5.154954,2.441744 0,0 -1.488339,-1.092723 -1.972922,-1.386439 0,0 -5.433984,-2.365252 -7.168423,-3.937951 z"
             id="path553"
             sodipodi:nodetypes="ccccc"
             transform="translate(-7.7085591,1.0000001)" /><path
             style="opacity:1;fill:#ffffff;fill-opacity:1;stroke-width:0.265498;stroke-linecap:round;stroke-miterlimit:37.9;paint-order:fill markers stroke"
             d="m 47.971249,54.000034 c 0,0 0.964196,1.280282 1.796853,1.845775 0,0 1.556427,0.867893 2.323578,1.563464 0,0 -0.670864,-0.699678 -0.889288,-0.887745 0,0 -2.44935,-1.514485 -3.231143,-2.521494 z"
             id="path554"
             sodipodi:nodetypes="ccccc"
             transform="translate(-7.7085591,1.0000001)" /></g><g
           id="g556"
           inkscape:label="nose"
           transform="matrix(1,0,0,0.73228121,0,20.183075)"><path
             style="display:inline;opacity:1;fill:#000000;fill-opacity:1;stroke:none;stroke-width:0.129316;stroke-linecap:round;stroke-linejoin:round;stroke-miterlimit:37.9;stroke-opacity:1"
             d="m 55.50391,79.484466 0.848646,-4.095368 h 0.848645 v 9.999998 L 55.50391,80.944655 v -1.460189"
             id="path555"
             inkscape:label="Ext" /><path
             style="display:inline;opacity:1;fill:#ffffff;fill-opacity:1;stroke:none;stroke-width:0.0920566;stroke-linecap:round;stroke-linejoin:round;stroke-miterlimit:37.9;stroke-opacity:1"
             d="m 56.017576,79.676269 0.5985,-2.942801 h 0.5985 v 7.185682 l -1.197,-3.193633 v -1.049248"
             id="path556"
             inkscape:label="Inter" /></g><path
           style="opacity:1;fill:#000000;fill-opacity:1;stroke:none;stroke-width:0.315618;stroke-linecap:round;stroke-miterlimit:37.9;stroke-dasharray:none;stroke-opacity:1;paint-order:fill markers stroke"
           d="m 42.390702,71.935076 -0.0013,-0.509917 0.844748,0.494673 0.002,7.404283 9.184736,6.880559 0.441526,0.667084 -4.459862,-2.963091 -0.61458,-0.01655 -5.42125,-4.077119 z"
           id="path558"
           sodipodi:nodetypes="cccccccccc" /></g><g
         id="g569"
         inkscape:label="right"
         transform="matrix(-1,0,0,1,119.66041,-7.4251269)"
         style="display:inline"><g
           id="g563"
           inkscape:label="new eye"
           style="display:inline"
           transform="rotate(5.6309991,53.705484,76.819172)"><path
             style="display:inline;opacity:1;fill:#000000;fill-opacity:1;stroke:none;stroke-width:0.137;stroke-dasharray:none;stroke-opacity:1"
             d="m 55.266679,78.000028 v -4.729911 c 0,0 -7.340166,-5.099124 -15.875,-5.599504 0,0 14.364315,4.700388 14.816667,6.329417 0,0 0.639723,3.511646 1.058333,3.999998 z"
             id="path559" /><path
             id="path560"
             d="m 217.54133,518.24386 c 0,2.11067 -1.79067,3.82267 -4,3.82267 -2.20933,0 -4,-1.712 -4,-3.82267 0,-2.11067 1.79067,-3.82267 4,-3.82267 2.20933,0 4,1.712 4,3.82267 z"
             style="display:inline;opacity:1;fill:#ffffff;fill-opacity:1;stroke:#ffffff;stroke-width:1.33333;stroke-linecap:butt;stroke-linejoin:miter;stroke-miterlimit:10;stroke-dasharray:none;stroke-opacity:1"
             transform="matrix(0.10509099,0,0,0.10509099,25.837441,18.537269)" /><path
             id="path561"
             d="m 52.816217,62.98961 5.089329,2.49161 c 0,0 -5.813866,4.51881 -5.089329,-2.49161"
             style="display:inline;opacity:1;fill:#050505;fill-opacity:1;fill-rule:nonzero;stroke:#000000;stroke-width:0.111113;stroke-linecap:butt;stroke-linejoin:miter;stroke-miterlimit:10;stroke-dasharray:none;stroke-opacity:1"
             sodipodi:nodetypes="ccc"
             transform="translate(-5.29167,7.2982182)" /><path
             id="path562"
             d="m 48.699075,71.896521 c 0,0.221813 -0.188184,0.401729 -0.420364,0.401729 -0.232181,0 -0.420364,-0.179916 -0.420364,-0.401729 0,-0.221812 0.188183,-0.401728 0.420364,-0.401728 0.23218,0 0.420364,0.179916 0.420364,0.401728"
             style="display:inline;opacity:1;fill:#ffffff;fill-opacity:1;fill-rule:nonzero;stroke:#ffffff;stroke-width:0.140121;stroke-opacity:1" /><path
             style="display:inline;opacity:1;fill:#000000;stroke-width:4.01958;stroke-linecap:round;stroke-miterlimit:37.9;paint-order:fill markers stroke"
             d="m 526.13772,432.04116 10.10533,8.1959 -1.46712,27.12143 18.80896,16.41696 28.21103,-1.17855 -25.57347,-3.36834 -12.72412,-13.33175 0.81141,-23.52331 2.68802,-2.70998 z"
             id="path563"
             transform="matrix(0.15100138,-0.0094295,0.00989586,0.15846964,-40.982964,5.3073386)"
             sodipodi:nodetypes="cccccccccc" /></g><g
           id="g566"
           inkscape:label="new ear"
           transform="translate(2.4168874,6.4251269)"><path
             style="display:inline;opacity:1;fill:#000000;fill-opacity:1;stroke:none;stroke-width:0.623001;stroke-linecap:round;stroke-linejoin:miter;stroke-miterlimit:37.9;stroke-dasharray:none;stroke-opacity:1"
             d="m 53.150008,67.927996 c 0,0 -1.753249,-2.68119 -3.405826,-4.23013 -0.981044,-1.226305 -8.747597,-4.032351 -8.531472,-7.272704 0,0 -0.423593,2.62117 0.408533,4.273038 -0.01191,0.08302 -0.862525,-0.611807 -1.163276,-1.66521 0,0 0.584775,3.176528 2.078518,4.179784 0,0 11.366188,6.235442 12.73019,8.212385 0,0 -5.281084,-6.284615 -8.466665,-7.999999 0,0 4.671428,2.134927 6.349998,4.502836 z"
             id="path564"
             transform="translate(-2.4168874,-6.4251269)"
             sodipodi:nodetypes="ccccccccc" /><path
             style="opacity:1;fill:#ffffff;fill-opacity:1;stroke-width:0.494199;stroke-linecap:round;stroke-miterlimit:37.9;paint-order:fill markers stroke"
             d="m 47.046955,51.436231 c 0,0 2.139108,1.999485 3.986391,2.882646 0,0 3.452997,1.355434 5.154954,2.441744 0,0 -1.488339,-1.092723 -1.972922,-1.386439 0,0 -5.433984,-2.365252 -7.168423,-3.937951 z"
             id="path565"
             sodipodi:nodetypes="ccccc"
             transform="translate(-7.7085591,1.0000001)" /><path
             style="opacity:1;fill:#ffffff;fill-opacity:1;stroke-width:0.265498;stroke-linecap:round;stroke-miterlimit:37.9;paint-order:fill markers stroke"
             d="m 47.971249,54.000034 c 0,0 0.964196,1.280282 1.796853,1.845775 0,0 1.556427,0.867893 2.323578,1.563464 0,0 -0.670864,-0.699678 -0.889288,-0.887745 0,0 -2.44935,-1.514485 -3.231143,-2.521494 z"
             id="path566"
             sodipodi:nodetypes="ccccc"
             transform="translate(-7.7085591,1.0000001)" /></g><g
           id="g567"
           inkscape:label="nose"
           transform="matrix(1,0,0,0.73228121,0,20.183075)"><path
             style="display:inline;opacity:1;fill:#000000;fill-opacity:1;stroke:none;stroke-width:0.129316;stroke-linecap:round;stroke-linejoin:round;stroke-miterlimit:37.9;stroke-opacity:1"
             d="m 55.50391,79.484466 0.848646,-4.095368 h 0.848645 v 9.999998 L 55.50391,80.944655 v -1.460189"
             id="path567"
             inkscape:label="Ext" /></g><path
           style="opacity:1;fill:#000000;fill-opacity:1;stroke:none;stroke-width:0.315618;stroke-linecap:round;stroke-miterlimit:37.9;stroke-dasharray:none;stroke-opacity:1;paint-order:fill markers stroke"
           d="m 42.390702,71.935076 -0.0013,-0.509917 0.844748,0.494673 0.002,7.404283 9.184736,6.880559 0.441526,0.667084 -4.459862,-2.963091 -0.61458,-0.01655 -5.42125,-4.077119 z"
           id="path569"
           sodipodi:nodetypes="cccccccccc" /></g><g
         id="g572"
         inkscape:groupmode="layer"
         inkscape:label="head"
         style="display:inline;opacity:1"
         transform="matrix(0.15119795,0.00543246,-0.00570114,0.15867593,-28.217532,-11.063662)"><path
           style="opacity:1;fill:#000000;fill-opacity:1;stroke-width:4.01958;stroke-linecap:round;stroke-miterlimit:37.9;paint-order:fill markers stroke"
           d="m 681.12082,390.13973 c 0,0 -55.19981,-24.1843 -132.82196,4.54732 0,0 67.49834,-34.61459 132.82196,-4.54732"
           id="path570" /><path
           style="opacity:1;fill:#000000;fill-opacity:1;stroke-width:3.6397;stroke-linecap:round;stroke-miterlimit:37.9;paint-order:fill markers stroke"
           d="m 674.50773,390.2705 c 0,0 -49.98317,-21.89876 -120.26966,4.11748 0,0 61.11947,-31.34336 120.26966,-4.11748"
           id="path571" /><path
           style="opacity:1;fill:#000000;fill-opacity:1;stroke-width:3.41981;stroke-linecap:round;stroke-miterlimit:37.9;paint-order:fill markers stroke"
           d="m 671.22297,390.85805 c 0,0 -46.96354,-20.57579 -113.00381,3.86866 0,0 57.42709,-29.44982 113.00381,-3.86866"
           id="path572" /></g></g></g><g
     id="g543"
     transform="matrix(3.5485009,0,0,3.5485009,-155.48156,-163.39791)"
     inkscape:label="Logo"
     style="display:inline"><path
       sodipodi:type="star"
       style="display:inline;opacity:1;fill:#151a32;fill-opacity:1;stroke:none;stroke-width:0.323001;stroke-linecap:round;stroke-miterlimit:37.9;stroke-dasharray:none;stroke-opacity:1;paint-order:fill markers stroke"
       id="path515"
       inkscape:flatsided="true"
       sodipodi:sides="8"
       sodipodi:cx="66.908348"
       sodipodi:cy="67.000031"
       sodipodi:r1="34.017155"
       sodipodi:r2="29.459721"
       sodipodi:arg1="0.52359878"
       sodipodi:arg2="0.91629786"
       inkscape:rounded="0"
       inkscape:randomized="0"
       d="M 96.368068,84.008608 75.712635,99.858079 49.899771,96.459751 34.0503,75.804318 37.448628,49.991453 58.104061,34.141982 83.916926,37.54031 99.766396,58.195743 Z"
       transform="matrix(0.5850097,-0.0770775,0.0770775,0.5850097,18.150399,30.648987)"
       inkscape:label="octo ext" /><path
       sodipodi:type="star"
       style="opacity:1;fill:#ffffff;fill-opacity:1;stroke:none;stroke-width:0.323001;stroke-linecap:round;stroke-miterlimit:37.9;stroke-dasharray:none;stroke-opacity:1;paint-order:fill markers stroke"
       id="path516"
       inkscape:flatsided="true"
       sodipodi:sides="8"
       sodipodi:cx="66.908348"
       sodipodi:cy="67.000031"
       sodipodi:r1="34.017155"
       sodipodi:r2="29.459721"
       sodipodi:arg1="0.52359878"
       sodipodi:arg2="0.91629786"
       inkscape:rounded="0"
       inkscape:randomized="0"
       d="M 96.368068,84.008608 75.712635,99.858079 49.899771,96.459751 34.0503,75.804318 37.448628,49.991453 58.104061,34.141982 83.916926,37.54031 99.766396,58.195743 Z"
       transform="matrix(0.52935055,-0.06974412,0.06974412,0.52935055,22.365797,33.887487)"
       inkscape:label="octo int" /><g
       id="g528"
       inkscape:label="left"
       transform="translate(5.2916717,-7.425127)"
       style="display:inline"><g
         id="g521"
         inkscape:label="new eye"
         style="display:inline"
         transform="rotate(5.6309991,53.705484,76.819172)"><path
           style="display:inline;opacity:1;fill:#000000;fill-opacity:1;stroke:none;stroke-width:0.137;stroke-dasharray:none;stroke-opacity:1"
           d="m 55.266679,78.000028 v -4.729911 c 0,0 -7.340166,-5.099124 -15.875,-5.599504 0,0 14.364315,4.700388 14.816667,6.329417 0,0 0.639723,3.511646 1.058333,3.999998 z"
           id="path517" /><path
           id="path518"
           d="m 217.54133,518.24386 c 0,2.11067 -1.79067,3.82267 -4,3.82267 -2.20933,0 -4,-1.712 -4,-3.82267 0,-2.11067 1.79067,-3.82267 4,-3.82267 2.20933,0 4,1.712 4,3.82267 z"
           style="display:inline;opacity:1;fill:#ffffff;fill-opacity:1;stroke:#ffffff;stroke-width:1.33333;stroke-linecap:butt;stroke-linejoin:miter;stroke-miterlimit:10;stroke-dasharray:none;stroke-opacity:1"
           transform="matrix(0.10509099,0,0,0.10509099,25.837441,18.537269)" /><path
           id="path519"
           d="m 52.816217,62.98961 5.089329,2.49161 c 0,0 -5.813866,4.51881 -5.089329,-2.49161"
           style="display:inline;opacity:1;fill:#050505;fill-opacity:1;fill-rule:nonzero;stroke:#000000;stroke-width:0.111113;stroke-linecap:butt;stroke-linejoin:miter;stroke-miterlimit:10;stroke-dasharray:none;stroke-opacity:1"
           sodipodi:nodetypes="ccc"
           transform="translate(-5.29167,7.2982182)" /><path
           id="path520"
           d="m 48.699075,71.896521 c 0,0.221813 -0.188184,0.401729 -0.420364,0.401729 -0.232181,0 -0.420364,-0.179916 -0.420364,-0.401729 0,-0.221812 0.188183,-0.401728 0.420364,-0.401728 0.23218,0 0.420364,0.179916 0.420364,0.401728"
           style="display:inline;opacity:1;fill:#ffffff;fill-opacity:1;fill-rule:nonzero;stroke:#ffffff;stroke-width:0.140121;stroke-opacity:1" /><path
           style="display:inline;opacity:1;fill:#000000;stroke-width:4.01958;stroke-linecap:round;stroke-miterlimit:37.9;paint-order:fill markers stroke"
           d="m 526.13772,432.04116 10.10533,8.1959 -1.46712,27.12143 18.80896,16.41696 28.21103,-1.17855 -25.57347,-3.36834 -12.72412,-13.33175 0.81141,-23.52331 2.68802,-2.70998 z"
           id="path521"
           transform="matrix(0.15100138,-0.0094295,0.00989586,0.15846964,-40.982964,5.3073386)"
           sodipodi:nodetypes="cccccccccc" /></g><g
         id="g524"
         inkscape:label="new ear"
         transform="translate(2.4168874,6.4251269)"><path
           style="display:inline;opacity:1;fill:#000000;fill-opacity:1;stroke:none;stroke-width:0.623001;stroke-linecap:round;stroke-linejoin:miter;stroke-miterlimit:37.9;stroke-dasharray:none;stroke-opacity:1"
           d="m 53.150008,67.927996 c 0,0 -1.753249,-2.68119 -3.405826,-4.23013 -0.981044,-1.226305 -8.747597,-4.032351 -8.531472,-7.272704 0,0 -0.423593,2.62117 0.408533,4.273038 -0.01191,0.08302 -0.862525,-0.611807 -1.163276,-1.66521 0,0 0.584775,3.176528 2.078518,4.179784 0,0 11.366188,6.235442 12.73019,8.212385 0,0 -5.281084,-6.284615 -8.466665,-7.999999 0,0 4.671428,2.134927 6.349998,4.502836 z"
           id="path522"
           transform="translate(-2.4168874,-6.4251269)"
           sodipodi:nodetypes="ccccccccc" /><path
           style="opacity:1;fill:#ffffff;fill-opacity:1;stroke-width:0.494199;stroke-linecap:round;stroke-miterlimit:37.9;paint-order:fill markers stroke"
           d="m 47.046955,51.436231 c 0,0 2.139108,1.999485 3.986391,2.882646 0,0 3.452997,1.355434 5.154954,2.441744 0,0 -1.488339,-1.092723 -1.972922,-1.386439 0,0 -5.433984,-2.365252 -7.168423,-3.937951 z"
           id="path523"
           sodipodi:nodetypes="ccccc"
           transform="translate(-7.7085591,1.0000001)" /><path
           style="opacity:1;fill:#ffffff;fill-opacity:1;stroke-width:0.265498;stroke-linecap:round;stroke-miterlimit:37.9;paint-order:fill markers stroke"
           d="m 47.971249,54.000034 c 0,0 0.964196,1.280282 1.796853,1.845775 0,0 1.556427,0.867893 2.323578,1.563464 0,0 -0.670864,-0.699678 -0.889288,-0.887745 0,0 -2.44935,-1.514485 -3.231143,-2.521494 z"
           id="path524"
           sodipodi:nodetypes="ccccc"
           transform="translate(-7.7085591,1.0000001)" /></g><g
         id="g526"
         inkscape:label="nose"
         transform="matrix(1,0,0,0.73228121,0,20.183075)"><path
           style="display:inline;opacity:1;fill:#000000;fill-opacity:1;stroke:none;stroke-width:0.129316;stroke-linecap:round;stroke-linejoin:round;stroke-miterlimit:37.9;stroke-opacity:1"
           d="m 55.50391,79.484466 0.848646,-4.095368 h 0.848645 v 9.999998 L 55.50391,80.944655 v -1.460189"
           id="path525"
           inkscape:label="Ext" /><path
           style="display:inline;opacity:1;fill:#ffffff;fill-opacity:1;stroke:none;stroke-width:0.0920566;stroke-linecap:round;stroke-linejoin:round;stroke-miterlimit:37.9;stroke-opacity:1"
           d="m 56.017576,79.676269 0.5985,-2.942801 h 0.5985 v 7.185682 l -1.197,-3.193633 v -1.049248"
           id="path526"
           inkscape:label="Inter" /></g><path
         style="opacity:1;fill:#000000;fill-opacity:1;stroke:none;stroke-width:0.315618;stroke-linecap:round;stroke-miterlimit:37.9;stroke-dasharray:none;stroke-opacity:1;paint-order:fill markers stroke"
         d="m 42.390702,71.935076 -0.0013,-0.509917 0.844748,0.494673 0.002,7.404283 9.184736,6.880559 0.441526,0.667084 -4.459862,-2.963091 -0.61458,-0.01655 -5.42125,-4.077119 z"
         id="path528"
         sodipodi:nodetypes="cccccccccc" /></g><g
       id="g539"
       inkscape:label="right"
       transform="matrix(-1,0,0,1,119.66041,-7.4251269)"
       style="display:inline"><g
         id="g533"
         inkscape:label="new eye"
         style="display:inline"
         transform="rotate(5.6309991,53.705484,76.819172)"><path
           style="display:inline;opacity:1;fill:#000000;fill-opacity:1;stroke:none;stroke-width:0.137;stroke-dasharray:none;stroke-opacity:1"
           d="m 55.266679,78.000028 v -4.729911 c 0,0 -7.340166,-5.099124 -15.875,-5.599504 0,0 14.364315,4.700388 14.816667,6.329417 0,0 0.639723,3.511646 1.058333,3.999998 z"
           id="path529" /><path
           id="path530"
           d="m 217.54133,518.24386 c 0,2.11067 -1.79067,3.82267 -4,3.82267 -2.20933,0 -4,-1.712 -4,-3.82267 0,-2.11067 1.79067,-3.82267 4,-3.82267 2.20933,0 4,1.712 4,3.82267 z"
           style="display:inline;opacity:1;fill:#ffffff;fill-opacity:1;stroke:#ffffff;stroke-width:1.33333;stroke-linecap:butt;stroke-linejoin:miter;stroke-miterlimit:10;stroke-dasharray:none;stroke-opacity:1"
           transform="matrix(0.10509099,0,0,0.10509099,25.837441,18.537269)" /><path
           id="path531"
           d="m 52.816217,62.98961 5.089329,2.49161 c 0,0 -5.813866,4.51881 -5.089329,-2.49161"
           style="display:inline;opacity:1;fill:#050505;fill-opacity:1;fill-rule:nonzero;stroke:#000000;stroke-width:0.111113;stroke-linecap:butt;stroke-linejoin:miter;stroke-miterlimit:10;stroke-dasharray:none;stroke-opacity:1"
           sodipodi:nodetypes="ccc"
           transform="translate(-5.29167,7.2982182)" /><path
           id="path532"
           d="m 48.699075,71.896521 c 0,0.221813 -0.188184,0.401729 -0.420364,0.401729 -0.232181,0 -0.420364,-0.179916 -0.420364,-0.401729 0,-0.221812 0.188183,-0.401728 0.420364,-0.401728 0.23218,0 0.420364,0.179916 0.420364,0.401728"
           style="display:inline;opacity:1;fill:#ffffff;fill-opacity:1;fill-rule:nonzero;stroke:#ffffff;stroke-width:0.140121;stroke-opacity:1" /><path
           style="display:inline;opacity:1;fill:#000000;stroke-width:4.01958;stroke-linecap:round;stroke-miterlimit:37.9;paint-order:fill markers stroke"
           d="m 526.13772,432.04116 10.10533,8.1959 -1.46712,27.12143 18.80896,16.41696 28.21103,-1.17855 -25.57347,-3.36834 -12.72412,-13.33175 0.81141,-23.52331 2.68802,-2.70998 z"
           id="path533"
           transform="matrix(0.15100138,-0.0094295,0.00989586,0.15846964,-40.982964,5.3073386)"
           sodipodi:nodetypes="cccccccccc" /></g><g
         id="g536"
         inkscape:label="new ear"
         transform="translate(2.4168874,6.4251269)"><path
           style="display:inline;opacity:1;fill:#000000;fill-opacity:1;stroke:none;stroke-width:0.623001;stroke-linecap:round;stroke-linejoin:miter;stroke-miterlimit:37.9;stroke-dasharray:none;stroke-opacity:1"
           d="m 53.150008,67.927996 c 0,0 -1.753249,-2.68119 -3.405826,-4.23013 -0.981044,-1.226305 -8.747597,-4.032351 -8.531472,-7.272704 0,0 -0.423593,2.62117 0.408533,4.273038 -0.01191,0.08302 -0.862525,-0.611807 -1.163276,-1.66521 0,0 0.584775,3.176528 2.078518,4.179784 0,0 11.366188,6.235442 12.73019,8.212385 0,0 -5.281084,-6.284615 -8.466665,-7.999999 0,0 4.671428,2.134927 6.349998,4.502836 z"
           id="path534"
           transform="translate(-2.4168874,-6.4251269)"
           sodipodi:nodetypes="ccccccccc" /><path
           style="opacity:1;fill:#ffffff;fill-opacity:1;stroke-width:0.494199;stroke-linecap:round;stroke-miterlimit:37.9;paint-order:fill markers stroke"
           d="m 47.046955,51.436231 c 0,0 2.139108,1.999485 3.986391,2.882646 0,0 3.452997,1.355434 5.154954,2.441744 0,0 -1.488339,-1.092723 -1.972922,-1.386439 0,0 -5.433984,-2.365252 -7.168423,-3.937951 z"
           id="path535"
           sodipodi:nodetypes="ccccc"
           transform="translate(-7.7085591,1.0000001)" /><path
           style="opacity:1;fill:#ffffff;fill-opacity:1;stroke-width:0.265498;stroke-linecap:round;stroke-miterlimit:37.9;paint-order:fill markers stroke"
           d="m 47.971249,54.000034 c 0,0 0.964196,1.280282 1.796853,1.845775 0,0 1.556427,0.867893 2.323578,1.563464 0,0 -0.670864,-0.699678 -0.889288,-0.887745 0,0 -2.44935,-1.514485 -3.231143,-2.521494 z"
           id="path536"
           sodipodi:nodetypes="ccccc"
           transform="translate(-7.7085591,1.0000001)" /></g><g
         id="g537"
         inkscape:label="nose"
         transform="matrix(1,0,0,0.73228121,0,20.183075)"><path
           style="display:inline;opacity:1;fill:#000000;fill-opacity:1;stroke:none;stroke-width:0.129316;stroke-linecap:round;stroke-linejoin:round;stroke-miterlimit:37.9;stroke-opacity:1"
           d="m 55.50391,79.484466 0.848646,-4.095368 h 0.848645 v 9.999998 L 55.50391,80.944655 v -1.460189"
           id="path537"
           inkscape:label="Ext" /></g><path
         style="opacity:1;fill:#000000;fill-opacity:1;stroke:none;stroke-width:0.315618;stroke-linecap:round;stroke-miterlimit:37.9;stroke-dasharray:none;stroke-opacity:1;paint-order:fill markers stroke"
         d="m 42.390702,71.935076 -0.0013,-0.509917 0.844748,0.494673 0.002,7.404283 9.184736,6.880559 0.441526,0.667084 -4.459862,-2.963091 -0.61458,-0.01655 -5.42125,-4.077119 z"
         id="path539"
         sodipodi:nodetypes="cccccccccc" /></g><g
       id="g542"
       inkscape:groupmode="layer"
       inkscape:label="head"
       style="display:inline;opacity:1"
       transform="matrix(0.15119795,0.00543246,-0.00570114,0.15867593,-28.217532,-11.063662)"><path
         style="opacity:1;fill:#000000;fill-opacity:1;stroke-width:4.01958;stroke-linecap:round;stroke-miterlimit:37.9;paint-order:fill markers stroke"
         d="m 681.12082,390.13973 c 0,0 -55.19981,-24.1843 -132.82196,4.54732 0,0 67.49834,-34.61459 132.82196,-4.54732"
         id="path540" /><path
         style="opacity:1;fill:#000000;fill-opacity:1;stroke-width:3.6397;stroke-linecap:round;stroke-miterlimit:37.9;paint-order:fill markers stroke"
         d="m 674.50773,390.2705 c 0,0 -49.98317,-21.89876 -120.26966,4.11748 0,0 61.11947,-31.34336 120.26966,-4.11748"
         id="path541" /><path
         style="opacity:1;fill:#000000;fill-opacity:1;stroke-width:3.41981;stroke-linecap:round;stroke-miterlimit:37.9;paint-order:fill markers stroke"
         d="m 671.22297,390.85805 c 0,0 -46.96354,-20.57579 -113.00381,3.86866 0,0 57.42709,-29.44982 113.00381,-3.86866"
         id="path542" /></g></g></svg>
